<mxfile host="Electron" modified="2023-09-19T18:44:31.422Z" agent="Mozilla/5.0 (Windows NT 10.0; Win64; x64) AppleWebKit/537.36 (KHTML, like Gecko) draw.io/21.7.5 Chrome/114.0.5735.289 Electron/25.8.1 Safari/537.36" etag="uxZs7yWZKQlBUAnDwWyt" version="21.7.5" type="device">
  <diagram name="Page-1" id="efa7a0a1-bf9b-a30e-e6df-94a7791c09e9">
    <mxGraphModel dx="4615" dy="1891" grid="0" gridSize="10" guides="1" tooltips="1" connect="1" arrows="1" fold="1" page="0" pageScale="1" pageWidth="1169" pageHeight="827" background="#ffffff" math="0" shadow="0">
      <root>
        <mxCell id="0" />
        <mxCell id="1" parent="0" />
        <mxCell id="XHzrQX2ppPqFaPMvTT7x-58" value="" style="rounded=1;whiteSpace=wrap;html=1;strokeColor=default;fillColor=#99CCFF;opacity=60;" parent="1" vertex="1">
          <mxGeometry x="54" y="-10" width="555" height="696" as="geometry" />
        </mxCell>
        <mxCell id="crgheHHrN_SQFuG_95Lk-115" value="&lt;p style=&quot;margin: 0px ; margin-top: 4px ; text-align: center ; text-decoration: underline&quot;&gt;&lt;strong&gt;Project&lt;/strong&gt;&lt;/p&gt;&lt;hr&gt;&lt;p style=&quot;margin: 0px ; margin-left: 8px&quot;&gt;id: ID&lt;/p&gt;&lt;p style=&quot;margin: 0px ; margin-left: 8px&quot;&gt;&lt;span&gt;name: string&lt;/span&gt;&lt;/p&gt;&lt;p style=&quot;margin: 0px ; margin-left: 8px&quot;&gt;profile: Profile&lt;/p&gt;&lt;p style=&quot;margin: 0px ; margin-left: 8px&quot;&gt;lifecycle: Lifecycle&lt;/p&gt;" style="verticalAlign=top;align=left;overflow=fill;fontSize=12;fontFamily=Helvetica;html=1;strokeColor=#6c8ebf;shadow=1;fillColor=#9999FF;" parent="1" vertex="1">
          <mxGeometry x="380.5" y="726" width="173.5" height="104" as="geometry" />
        </mxCell>
        <mxCell id="g109RXZzPeZsBb1zn4cU-143" value="&lt;p style=&quot;margin: 0px ; margin-top: 4px ; text-align: center ; text-decoration: underline&quot;&gt;&lt;b&gt;Organization&lt;/b&gt;&lt;/p&gt;&lt;hr&gt;&lt;p style=&quot;margin: 0px ; margin-left: 8px&quot;&gt;&lt;span style=&quot;background-color: initial;&quot;&gt;groups: UserGroup[]&lt;/span&gt;&lt;br&gt;&lt;/p&gt;&lt;p style=&quot;margin: 0px ; margin-left: 8px&quot;&gt;&lt;span&gt;members: User[]&lt;/span&gt;&lt;/p&gt;&lt;p style=&quot;margin: 0px ; margin-left: 8px&quot;&gt;verification: Verification&lt;/p&gt;&lt;p style=&quot;margin: 0px ; margin-left: 8px&quot;&gt;storage: storageBucket&lt;/p&gt;" style="verticalAlign=top;align=left;overflow=fill;fontSize=12;fontFamily=Helvetica;html=1;strokeColor=#003366;shadow=1;fontColor=#003366;fillColor=#99FFCC;" parent="1" vertex="1">
          <mxGeometry x="1182" y="159" width="177" height="129" as="geometry" />
        </mxCell>
        <mxCell id="g109RXZzPeZsBb1zn4cU-146" value="&lt;p style=&quot;margin: 0px ; margin-top: 4px ; text-align: center ; text-decoration: underline&quot;&gt;&lt;strong&gt;Context&lt;/strong&gt;&lt;/p&gt;&lt;hr&gt;&lt;p style=&quot;margin: 0px ; margin-left: 8px&quot;&gt;id:ID&lt;/p&gt;&lt;p style=&quot;margin: 0px ; margin-left: 8px&quot;&gt;&lt;span style=&quot;background-color: initial;&quot;&gt;vision: string&lt;/span&gt;&lt;br&gt;&lt;/p&gt;&lt;p style=&quot;margin: 0px ; margin-left: 8px&quot;&gt;&lt;span&gt;who: string&lt;/span&gt;&lt;/p&gt;&lt;p style=&quot;margin: 0px ; margin-left: 8px&quot;&gt;&lt;span&gt;impact: string&lt;/span&gt;&lt;/p&gt;&lt;p style=&quot;margin: 0px ; margin-left: 8px&quot;&gt;ecosystem: ecosystemModel&lt;/p&gt;&lt;p style=&quot;margin: 0px ; margin-left: 8px&quot;&gt;recommendations: Reference[]&lt;/p&gt;&lt;div&gt;&lt;span&gt;&lt;br&gt;&lt;/span&gt;&lt;/div&gt;" style="verticalAlign=top;align=left;overflow=fill;fontSize=12;fontFamily=Helvetica;html=1;strokeColor=#003366;shadow=1;fontColor=#003366;fillColor=#9AC7BF;" parent="1" vertex="1">
          <mxGeometry x="-233" y="40.5" width="206" height="126.5" as="geometry" />
        </mxCell>
        <mxCell id="22" value="&lt;p style=&quot;margin: 0px ; margin-top: 4px ; text-align: center ; text-decoration: underline&quot;&gt;&lt;b&gt;User&lt;/b&gt;&lt;/p&gt;&lt;hr&gt;&lt;p style=&quot;margin: 0px ; margin-left: 8px&quot;&gt;&lt;span style=&quot;background-color: initial;&quot;&gt;email: String&lt;/span&gt;&lt;br&gt;&lt;/p&gt;&lt;p style=&quot;margin: 0px ; margin-left: 8px&quot;&gt;phone: string&lt;/p&gt;&lt;p style=&quot;margin: 0px ; margin-left: 8px&quot;&gt;firstName: String&lt;/p&gt;&lt;p style=&quot;margin: 0px ; margin-left: 8px&quot;&gt;lastName: String&lt;/p&gt;&lt;p style=&quot;margin: 0px ; margin-left: 8px&quot;&gt;gender: String&lt;br&gt;&lt;/p&gt;" style="verticalAlign=top;align=left;overflow=fill;fontSize=12;fontFamily=Helvetica;html=1;strokeColor=#003366;shadow=1;fontColor=#003366;fillColor=#99FFCC;" parent="1" vertex="1">
          <mxGeometry x="965" y="160" width="161" height="128" as="geometry" />
        </mxCell>
        <mxCell id="g109RXZzPeZsBb1zn4cU-131" value="&lt;p style=&quot;margin: 0px ; margin-top: 4px ; text-align: center ; text-decoration: underline&quot;&gt;&lt;b&gt;UserGroup&lt;/b&gt;&lt;/p&gt;&lt;hr&gt;&lt;p style=&quot;margin: 0px ; margin-left: 8px&quot;&gt;id: ID&lt;/p&gt;&lt;p style=&quot;margin: 0px ; margin-left: 8px&quot;&gt;name: string&lt;/p&gt;&lt;p style=&quot;margin: 0px ; margin-left: 8px&quot;&gt;members: User[]&lt;/p&gt;&lt;p style=&quot;margin: 0px ; margin-left: 8px&quot;&gt;profile: Profile&lt;/p&gt;" style="verticalAlign=top;align=left;overflow=fill;fontSize=12;fontFamily=Helvetica;html=1;strokeColor=#003366;shadow=1;fillColor=#99FFCC;fontColor=#003366" parent="1" vertex="1">
          <mxGeometry x="971.5" y="342" width="148" height="105" as="geometry" />
        </mxCell>
        <mxCell id="g109RXZzPeZsBb1zn4cU-152" value="0..n" style="endArrow=open;html=1;endSize=12;startArrow=diamondThin;startSize=14;startFill=1;edgeStyle=orthogonalEdgeStyle;align=left;verticalAlign=bottom;strokeWidth=1;exitX=0.5;exitY=1;exitDx=0;exitDy=0;entryX=0;entryY=0.5;entryDx=0;entryDy=0;" parent="1" source="XHzrQX2ppPqFaPMvTT7x-69" target="29" edge="1">
          <mxGeometry relative="1" as="geometry">
            <mxPoint x="159.5" y="355" as="sourcePoint" />
            <mxPoint x="390" y="584" as="targetPoint" />
          </mxGeometry>
        </mxCell>
        <mxCell id="lY5sdVedkNxhWJHI0kl--30" style="edgeStyle=orthogonalEdgeStyle;rounded=0;orthogonalLoop=1;jettySize=auto;html=1;" parent="1" source="uUSE7LgSBabqXevBdUgd-38" target="lY5sdVedkNxhWJHI0kl--29" edge="1">
          <mxGeometry relative="1" as="geometry" />
        </mxCell>
        <mxCell id="uUSE7LgSBabqXevBdUgd-38" value="&lt;p style=&quot;margin: 0px ; margin-top: 4px ; text-align: center ; text-decoration: underline&quot;&gt;&lt;b&gt;Tagset&lt;/b&gt;&lt;/p&gt;&lt;hr&gt;&lt;p style=&quot;margin: 0px ; margin-left: 8px&quot;&gt;id: ID&lt;/p&gt;&lt;p style=&quot;margin: 0px ; margin-left: 8px&quot;&gt;name: string&lt;/p&gt;&lt;p style=&quot;margin: 0px ; margin-left: 8px&quot;&gt;tags: string[]&lt;/p&gt;&lt;p style=&quot;margin: 0px ; margin-left: 8px&quot;&gt;tagsetTemplaet: TagsetTemplate&lt;/p&gt;&lt;p style=&quot;margin: 0px ; margin-left: 8px&quot;&gt;type: string&lt;/p&gt;&lt;p style=&quot;margin: 0px ; margin-left: 8px&quot;&gt;allowedValues(field)&lt;/p&gt;&lt;p style=&quot;margin: 0px ; margin-left: 8px&quot;&gt;&lt;br&gt;&lt;/p&gt;" style="verticalAlign=top;align=left;overflow=fill;fontSize=12;fontFamily=Helvetica;html=1;strokeColor=#666666;shadow=1;fillColor=#f5f5f5;fontColor=#333333;" parent="1" vertex="1">
          <mxGeometry x="864" y="754" width="188" height="135" as="geometry" />
        </mxCell>
        <mxCell id="52S6UJCDuXW4AV97fZFU-30" value="&lt;p style=&quot;margin: 0px ; margin-top: 4px ; text-align: center ; text-decoration: underline&quot;&gt;&lt;b&gt;Profile&lt;/b&gt;&lt;/p&gt;&lt;hr&gt;&lt;p style=&quot;margin: 0px ; margin-left: 8px&quot;&gt;id: ID&lt;/p&gt;&lt;p style=&quot;margin: 0px ; margin-left: 8px&quot;&gt;displayName: string&lt;/p&gt;&lt;p style=&quot;margin: 0px ; margin-left: 8px&quot;&gt;tagline: string&lt;/p&gt;&lt;p style=&quot;margin: 0px ; margin-left: 8px&quot;&gt;&lt;span style=&quot;background-color: initial;&quot;&gt;description: Markdown&lt;/span&gt;&lt;br&gt;&lt;/p&gt;&lt;p style=&quot;margin: 0px ; margin-left: 8px&quot;&gt;tagsets: Tagset[]&lt;/p&gt;&lt;p style=&quot;margin: 0px ; margin-left: 8px&quot;&gt;references: Reference[]&lt;/p&gt;&lt;p style=&quot;border-color: var(--border-color); margin: 0px 0px 0px 8px;&quot;&gt;visuals: Visual[]&lt;/p&gt;&lt;p style=&quot;margin: 0px ; margin-left: 8px&quot;&gt;location: Location&lt;/p&gt;&lt;p style=&quot;margin: 0px ; margin-left: 8px&quot;&gt;&lt;br&gt;&lt;/p&gt;" style="verticalAlign=top;align=left;overflow=fill;fontSize=12;fontFamily=Helvetica;html=1;strokeColor=#666666;shadow=1;fillColor=#f5f5f5;fontColor=#333333;" parent="1" vertex="1">
          <mxGeometry x="1095" y="500.5" width="164" height="158.5" as="geometry" />
        </mxCell>
        <mxCell id="52S6UJCDuXW4AV97fZFU-38" value="&lt;p style=&quot;margin: 0px ; margin-top: 4px ; text-align: center ; text-decoration: underline&quot;&gt;&lt;b&gt;Reference&lt;/b&gt;&lt;/p&gt;&lt;hr&gt;&lt;p style=&quot;margin: 0px ; margin-left: 8px&quot;&gt;id: ID&lt;/p&gt;&lt;p style=&quot;margin: 0px ; margin-left: 8px&quot;&gt;name: string&lt;/p&gt;&lt;p style=&quot;margin: 0px ; margin-left: 8px&quot;&gt;uri: string&lt;/p&gt;&lt;p style=&quot;margin: 0px ; margin-left: 8px&quot;&gt;description: string&lt;/p&gt;&lt;p style=&quot;margin: 0px ; margin-left: 8px&quot;&gt;&lt;br&gt;&lt;/p&gt;" style="verticalAlign=top;align=left;overflow=fill;fontSize=12;fontFamily=Helvetica;html=1;strokeColor=#666666;shadow=1;fillColor=#f5f5f5;fontColor=#333333;" parent="1" vertex="1">
          <mxGeometry x="892" y="500" width="131.5" height="103" as="geometry" />
        </mxCell>
        <mxCell id="G8CPrSdooPZw7x7xq0sv-29" value="&lt;p style=&quot;margin: 0px ; margin-top: 4px ; text-align: center ; text-decoration: underline&quot;&gt;&lt;strong&gt;ActorGroup&lt;/strong&gt;&lt;/p&gt;&lt;hr&gt;&lt;p style=&quot;margin: 0px ; margin-left: 8px&quot;&gt;id: ID&lt;/p&gt;&lt;p style=&quot;margin: 0px ; margin-left: 8px&quot;&gt;name: string&lt;/p&gt;&lt;p style=&quot;margin: 0px ; margin-left: 8px&quot;&gt;actors: Actor[]&lt;/p&gt;" style="verticalAlign=top;align=left;overflow=fill;fontSize=12;fontFamily=Helvetica;html=1;strokeColor=#d6b656;shadow=1;fillColor=#9AC7BF;" parent="1" vertex="1">
          <mxGeometry x="-592" y="156" width="136" height="81" as="geometry" />
        </mxCell>
        <mxCell id="G8CPrSdooPZw7x7xq0sv-30" value="&lt;p style=&quot;margin: 0px ; margin-top: 4px ; text-align: center ; text-decoration: underline&quot;&gt;&lt;strong&gt;Actor&lt;/strong&gt;&lt;/p&gt;&lt;hr&gt;&lt;p style=&quot;margin: 0px ; margin-left: 8px&quot;&gt;id: ID&lt;/p&gt;&lt;p style=&quot;margin: 0px ; margin-left: 8px&quot;&gt;name: string&lt;/p&gt;&lt;p style=&quot;margin: 0px ; margin-left: 8px&quot;&gt;description: string&lt;/p&gt;&lt;p style=&quot;margin: 0px ; margin-left: 8px&quot;&gt;value: string&lt;/p&gt;&lt;p style=&quot;margin: 0px ; margin-left: 8px&quot;&gt;impact: string&lt;/p&gt;" style="verticalAlign=top;align=left;overflow=fill;fontSize=12;fontFamily=Helvetica;html=1;strokeColor=#d6b656;shadow=1;fillColor=#9AC7BF;" parent="1" vertex="1">
          <mxGeometry x="-388" y="147" width="127" height="106" as="geometry" />
        </mxCell>
        <mxCell id="G8CPrSdooPZw7x7xq0sv-31" value="0..n" style="endArrow=open;html=1;endSize=12;startArrow=diamondThin;startSize=14;startFill=1;edgeStyle=orthogonalEdgeStyle;align=left;verticalAlign=bottom;strokeWidth=1;entryX=0.007;entryY=0.406;entryDx=0;entryDy=0;entryPerimeter=0;" parent="1" source="G8CPrSdooPZw7x7xq0sv-29" target="G8CPrSdooPZw7x7xq0sv-30" edge="1">
          <mxGeometry x="0.3684" y="3" relative="1" as="geometry">
            <mxPoint x="270" y="652" as="sourcePoint" />
            <mxPoint x="646" y="619.1599999999999" as="targetPoint" />
            <mxPoint y="1" as="offset" />
          </mxGeometry>
        </mxCell>
        <mxCell id="G8CPrSdooPZw7x7xq0sv-33" value="&lt;p style=&quot;margin: 0px ; margin-top: 4px ; text-align: center ; text-decoration: underline&quot;&gt;&lt;strong&gt;Post&lt;/strong&gt;&lt;/p&gt;&lt;hr&gt;&lt;p style=&quot;margin: 0px ; margin-left: 8px&quot;&gt;id: ID&lt;/p&gt;&lt;p style=&quot;margin: 0px ; margin-left: 8px&quot;&gt;nameID: string&lt;/p&gt;&lt;p style=&quot;margin: 0px ; margin-left: 8px&quot;&gt;profile: Profile&lt;br&gt;&lt;/p&gt;&lt;p style=&quot;margin: 0px ; margin-left: 8px&quot;&gt;&lt;span&gt;createdBy: User&lt;/span&gt;&lt;/p&gt;&lt;p style=&quot;margin: 0px ; margin-left: 8px&quot;&gt;comments: Comments&lt;/p&gt;" style="verticalAlign=top;align=left;overflow=fill;fontSize=12;fontFamily=Helvetica;html=1;strokeColor=#d6b656;shadow=1;fillColor=#FFFFCC;opacity=60;" parent="1" vertex="1">
          <mxGeometry x="-429" y="713" width="163" height="137" as="geometry" />
        </mxCell>
        <mxCell id="szzaWboSxo6sRydHjCB_-29" value="&lt;p style=&quot;margin: 0px ; margin-top: 4px ; text-align: center ; text-decoration: underline&quot;&gt;&lt;b&gt;Community&lt;/b&gt;&lt;/p&gt;&lt;hr&gt;&lt;p style=&quot;margin: 0px ; margin-left: 8px&quot;&gt;id: ID&lt;/p&gt;&amp;nbsp; displayName: string&lt;br&gt;&lt;p style=&quot;margin: 0px ; margin-left: 8px&quot;&gt;policy: string&lt;/p&gt;&lt;p style=&quot;margin: 0px ; margin-left: 8px&quot;&gt;members: Contributor[]&lt;/p&gt;&lt;p style=&quot;margin: 0px ; margin-left: 8px&quot;&gt;leads: Contributor[]&lt;/p&gt;&lt;p style=&quot;margin: 0px ; margin-left: 8px&quot;&gt;groups: UserGroup[]&lt;/p&gt;&lt;p style=&quot;margin: 0px ; margin-left: 8px&quot;&gt;applicationForm: Form&lt;/p&gt;&lt;p style=&quot;margin: 0px ; margin-left: 8px&quot;&gt;applications: Application[]&lt;/p&gt;&lt;p style=&quot;margin: 0px ; margin-left: 8px&quot;&gt;&lt;br&gt;&lt;/p&gt;" style="verticalAlign=top;align=left;overflow=fill;fontSize=12;fontFamily=Helvetica;html=1;strokeColor=#003366;shadow=1;fillColor=#99FFCC;fontColor=#003366" parent="1" vertex="1">
          <mxGeometry x="643" y="42" width="221" height="157" as="geometry" />
        </mxCell>
        <mxCell id="szzaWboSxo6sRydHjCB_-33" value="0..n" style="endArrow=open;html=1;endSize=12;startArrow=diamondThin;startSize=14;startFill=1;edgeStyle=orthogonalEdgeStyle;align=left;verticalAlign=bottom;strokeWidth=1;entryX=0;entryY=0.5;entryDx=0;entryDy=0;exitX=1;exitY=0.25;exitDx=0;exitDy=0;" parent="1" source="szzaWboSxo6sRydHjCB_-29" target="FQ2XHo6aB85YoyOK63lh-29" edge="1">
          <mxGeometry relative="1" as="geometry">
            <mxPoint x="839" y="247" as="sourcePoint" />
            <mxPoint x="945" y="592" as="targetPoint" />
          </mxGeometry>
        </mxCell>
        <mxCell id="szzaWboSxo6sRydHjCB_-34" value="&lt;p style=&quot;margin: 0px ; margin-top: 4px ; text-align: center ; text-decoration: underline&quot;&gt;&lt;b&gt;Application&lt;/b&gt;&lt;/p&gt;&lt;hr&gt;&lt;p style=&quot;margin: 0px ; margin-left: 8px&quot;&gt;id: ID&lt;/p&gt;&lt;p style=&quot;margin: 0px ; margin-left: 8px&quot;&gt;user: User&lt;/p&gt;&lt;p style=&quot;margin: 0px ; margin-left: 8px&quot;&gt;livecycle: Lifecycle&lt;/p&gt;&lt;p style=&quot;margin: 0px ; margin-left: 8px&quot;&gt;questions: NVP[]&lt;/p&gt;&lt;p style=&quot;margin: 0px ; margin-left: 8px&quot;&gt;&lt;br&gt;&lt;/p&gt;" style="verticalAlign=top;align=left;overflow=fill;fontSize=12;fontFamily=Helvetica;html=1;strokeColor=#003366;shadow=1;fillColor=#99FFCC;fontColor=#003366" parent="1" vertex="1">
          <mxGeometry x="1213" y="342" width="149" height="99" as="geometry" />
        </mxCell>
        <mxCell id="szzaWboSxo6sRydHjCB_-37" value="" style="edgeStyle=orthogonalEdgeStyle;fontSize=12;html=1;endArrow=ERmandOne;startArrow=ERmandOne;entryX=0;entryY=0.5;entryDx=0;entryDy=0;exitX=1;exitY=0.25;exitDx=0;exitDy=0;" parent="1" source="g109RXZzPeZsBb1zn4cU-146" target="XHzrQX2ppPqFaPMvTT7x-48" edge="1">
          <mxGeometry width="100" height="100" relative="1" as="geometry">
            <mxPoint x="119" y="256" as="sourcePoint" />
            <mxPoint x="234" y="138.6300000000001" as="targetPoint" />
            <Array as="points">
              <mxPoint x="29" y="90" />
              <mxPoint x="29" y="136" />
            </Array>
          </mxGeometry>
        </mxCell>
        <mxCell id="szzaWboSxo6sRydHjCB_-41" value="0..n" style="endArrow=open;html=1;endSize=12;startArrow=diamondThin;startSize=14;startFill=1;edgeStyle=orthogonalEdgeStyle;align=left;verticalAlign=bottom;strokeWidth=1;entryX=0;entryY=0.5;entryDx=0;entryDy=0;exitX=1;exitY=0.5;exitDx=0;exitDy=0;" parent="1" source="szzaWboSxo6sRydHjCB_-29" target="g109RXZzPeZsBb1zn4cU-131" edge="1">
          <mxGeometry x="0.3684" y="3" relative="1" as="geometry">
            <mxPoint x="890" y="230" as="sourcePoint" />
            <mxPoint x="907.9499999999998" y="183.92200000000003" as="targetPoint" />
            <mxPoint y="1" as="offset" />
          </mxGeometry>
        </mxCell>
        <mxCell id="szzaWboSxo6sRydHjCB_-42" value="0..n" style="endArrow=open;html=1;endSize=12;startArrow=diamondThin;startSize=14;startFill=1;edgeStyle=orthogonalEdgeStyle;align=left;verticalAlign=bottom;strokeWidth=1;entryX=0.25;entryY=1;entryDx=0;entryDy=0;exitX=1;exitY=0.75;exitDx=0;exitDy=0;" parent="1" source="szzaWboSxo6sRydHjCB_-29" target="szzaWboSxo6sRydHjCB_-34" edge="1">
          <mxGeometry relative="1" as="geometry">
            <mxPoint x="817.9360000000001" y="324.9649999999999" as="sourcePoint" />
            <mxPoint x="904" y="338.5799999999999" as="targetPoint" />
            <Array as="points">
              <mxPoint x="886" y="160" />
              <mxPoint x="886" y="469" />
              <mxPoint x="1250" y="469" />
            </Array>
          </mxGeometry>
        </mxCell>
        <mxCell id="szzaWboSxo6sRydHjCB_-44" value="" style="edgeStyle=orthogonalEdgeStyle;fontSize=12;html=1;endArrow=ERmandOne;startArrow=ERmandOne;exitX=1;exitY=0.25;exitDx=0;exitDy=0;entryX=0;entryY=0.315;entryDx=0;entryDy=0;entryPerimeter=0;" parent="1" source="XHzrQX2ppPqFaPMvTT7x-48" target="szzaWboSxo6sRydHjCB_-29" edge="1">
          <mxGeometry width="100" height="100" relative="1" as="geometry">
            <mxPoint x="169" y="290.75" as="sourcePoint" />
            <mxPoint x="490" y="256" as="targetPoint" />
          </mxGeometry>
        </mxCell>
        <mxCell id="szzaWboSxo6sRydHjCB_-54" value="" style="endArrow=open;html=1;endSize=12;startArrow=diamondThin;startSize=14;startFill=1;edgeStyle=orthogonalEdgeStyle;align=left;verticalAlign=bottom;strokeWidth=1;entryX=1;entryY=0.5;entryDx=0;entryDy=0;exitX=0;exitY=0.5;exitDx=0;exitDy=0;" parent="1" source="g109RXZzPeZsBb1zn4cU-143" target="22" edge="1">
          <mxGeometry relative="1" as="geometry">
            <mxPoint x="827" y="332" as="sourcePoint" />
            <mxPoint x="904" y="233.25" as="targetPoint" />
          </mxGeometry>
        </mxCell>
        <mxCell id="DITfqImezb8mSzFFE5V4-29" value="&lt;p style=&quot;margin: 0px ; margin-top: 4px ; text-align: center ; text-decoration: underline&quot;&gt;&lt;b&gt;Relation&lt;/b&gt;&lt;/p&gt;&lt;hr&gt;&lt;p style=&quot;margin: 0px ; margin-left: 8px&quot;&gt;id: ID&lt;/p&gt;&lt;p style=&quot;margin: 0px ; margin-left: 8px&quot;&gt;&lt;span&gt;name: string&lt;/span&gt;&lt;br&gt;&lt;/p&gt;&lt;p style=&quot;margin: 0px ; margin-left: 8px&quot;&gt;type: string&lt;/p&gt;&lt;p style=&quot;margin: 0px ; margin-left: 8px&quot;&gt;role: string&lt;/p&gt;&lt;p style=&quot;margin: 0px ; margin-left: 8px&quot;&gt;description: string&lt;br&gt;&lt;/p&gt;" style="verticalAlign=top;align=left;overflow=fill;fontSize=12;fontFamily=Helvetica;html=1;strokeColor=#6c8ebf;shadow=1;fillColor=#FFFFCC;opacity=60;" parent="1" vertex="1">
          <mxGeometry x="-632" y="297" width="168" height="113" as="geometry" />
        </mxCell>
        <mxCell id="DITfqImezb8mSzFFE5V4-30" value="0..n" style="endArrow=open;html=1;endSize=12;startArrow=diamondThin;startSize=14;startFill=1;edgeStyle=orthogonalEdgeStyle;align=left;verticalAlign=bottom;strokeWidth=1;exitX=0.004;exitY=0.45;exitDx=0;exitDy=0;exitPerimeter=0;" parent="1" source="XHzrQX2ppPqFaPMvTT7x-39" target="DITfqImezb8mSzFFE5V4-29" edge="1">
          <mxGeometry x="0.3684" y="3" relative="1" as="geometry">
            <mxPoint x="-9.150000000000091" y="-26.548160000000053" as="sourcePoint" />
            <mxPoint x="34" y="130.5" as="targetPoint" />
            <mxPoint y="1" as="offset" />
          </mxGeometry>
        </mxCell>
        <mxCell id="lNGriXrNwYLe0H3eNCdz-29" value="&lt;p style=&quot;margin: 0px ; margin-top: 4px ; text-align: center ; text-decoration: underline&quot;&gt;&lt;b&gt;Agent&lt;/b&gt;&lt;/p&gt;&lt;hr&gt;&lt;p style=&quot;margin: 0px ; margin-left: 8px&quot;&gt;id: ID&lt;/p&gt;&lt;p style=&quot;margin: 0px ; margin-left: 8px&quot;&gt;&lt;span&gt;did: DID&lt;/span&gt;&lt;br&gt;&lt;/p&gt;&lt;p style=&quot;margin: 0px ; margin-left: 8px&quot;&gt;credentials: Credential[]&lt;/p&gt;&lt;p style=&quot;margin: 0px ; margin-left: 8px&quot;&gt;verifiedCredentials: VerifiedCredential[]&lt;/p&gt;" style="verticalAlign=top;align=left;overflow=fill;fontSize=12;fontFamily=Helvetica;html=1;strokeColor=#d79b00;shadow=1;fillColor=#CCCC00;" parent="1" vertex="1">
          <mxGeometry x="1595" y="-33" width="237" height="103" as="geometry" />
        </mxCell>
        <mxCell id="lNGriXrNwYLe0H3eNCdz-30" value="&lt;p style=&quot;margin: 0px ; margin-top: 4px ; text-align: center ; text-decoration: underline&quot;&gt;&lt;b&gt;Credential&lt;/b&gt;&lt;/p&gt;&lt;hr&gt;&lt;p style=&quot;margin: 0px ; margin-left: 8px&quot;&gt;id: ID&lt;/p&gt;&lt;p style=&quot;margin: 0px ; margin-left: 8px&quot;&gt;&lt;span&gt;type: string&lt;/span&gt;&lt;br&gt;&lt;/p&gt;&lt;p style=&quot;margin: 0px ; margin-left: 8px&quot;&gt;resourceID: Int&lt;/p&gt;" style="verticalAlign=top;align=left;overflow=fill;fontSize=12;fontFamily=Helvetica;html=1;strokeColor=#d79b00;shadow=1;fillColor=#CCCC00;" parent="1" vertex="1">
          <mxGeometry x="1527" y="141" width="166" height="92" as="geometry" />
        </mxCell>
        <mxCell id="lNGriXrNwYLe0H3eNCdz-32" value="0..n" style="endArrow=open;html=1;endSize=12;startArrow=diamondThin;startSize=14;startFill=1;edgeStyle=orthogonalEdgeStyle;align=left;verticalAlign=bottom;strokeWidth=1;entryX=0.474;entryY=0.007;entryDx=0;entryDy=0;entryPerimeter=0;exitX=0.321;exitY=1.039;exitDx=0;exitDy=0;exitPerimeter=0;" parent="1" source="lNGriXrNwYLe0H3eNCdz-29" target="lNGriXrNwYLe0H3eNCdz-30" edge="1">
          <mxGeometry x="0.3684" y="3" relative="1" as="geometry">
            <mxPoint x="1349.25" y="16.90000000000009" as="sourcePoint" />
            <mxPoint x="1716" y="111" as="targetPoint" />
            <mxPoint y="1" as="offset" />
          </mxGeometry>
        </mxCell>
        <mxCell id="nwWqg2h8W6zvY-KYqPRu-29" value="&lt;p style=&quot;margin: 0px ; margin-top: 4px ; text-align: center ; text-decoration: underline&quot;&gt;&lt;b&gt;Opportunity&lt;/b&gt;&lt;/p&gt;&lt;hr&gt;&amp;nbsp; innovationFlow: InnovationFlow&lt;p style=&quot;margin: 0px ; margin-left: 8px&quot;&gt;&lt;span style=&quot;background-color: initial;&quot;&gt;projects: Project[]&lt;/span&gt;&lt;br&gt;&lt;/p&gt;" style="verticalAlign=top;align=left;overflow=fill;fontSize=12;fontFamily=Helvetica;html=1;strokeColor=#6c8ebf;shadow=1;fillColor=#99CCFF;" parent="1" vertex="1">
          <mxGeometry x="377" y="558" width="185" height="74" as="geometry" />
        </mxCell>
        <mxCell id="nwWqg2h8W6zvY-KYqPRu-40" value="&lt;p style=&quot;margin: 0px ; margin-top: 4px ; text-align: center ; text-decoration: underline&quot;&gt;&lt;strong&gt;EcosystemModel&lt;/strong&gt;&lt;/p&gt;&lt;hr&gt;&lt;p style=&quot;margin: 0px ; margin-left: 8px&quot;&gt;id: ID&lt;/p&gt;&lt;p style=&quot;margin: 0px ; margin-left: 8px&quot;&gt;name: string&lt;/p&gt;&lt;p style=&quot;margin: 0px ; margin-left: 8px&quot;&gt;actorsGroups: ActorGroup[]&lt;/p&gt;" style="verticalAlign=top;align=left;overflow=fill;fontSize=12;fontFamily=Helvetica;html=1;strokeColor=#d6b656;shadow=1;fillColor=#9AC7BF;" parent="1" vertex="1">
          <mxGeometry x="-538" y="5" width="166" height="81" as="geometry" />
        </mxCell>
        <mxCell id="nwWqg2h8W6zvY-KYqPRu-41" value="0..n" style="endArrow=open;html=1;endSize=12;startArrow=diamondThin;startSize=14;startFill=1;edgeStyle=orthogonalEdgeStyle;align=left;verticalAlign=bottom;strokeWidth=1;exitX=0.428;exitY=1.025;exitDx=0;exitDy=0;exitPerimeter=0;entryX=0.5;entryY=0;entryDx=0;entryDy=0;" parent="1" source="nwWqg2h8W6zvY-KYqPRu-40" target="G8CPrSdooPZw7x7xq0sv-29" edge="1">
          <mxGeometry x="0.3684" y="3" relative="1" as="geometry">
            <mxPoint x="-43" y="579" as="sourcePoint" />
            <mxPoint x="-534" y="177" as="targetPoint" />
            <mxPoint y="1" as="offset" />
          </mxGeometry>
        </mxCell>
        <mxCell id="nwWqg2h8W6zvY-KYqPRu-43" value="0..n" style="endArrow=open;html=1;endSize=12;startArrow=diamondThin;startSize=14;startFill=1;edgeStyle=orthogonalEdgeStyle;align=left;verticalAlign=bottom;strokeWidth=1;entryX=0.5;entryY=0;entryDx=0;entryDy=0;exitX=0.403;exitY=1.022;exitDx=0;exitDy=0;exitPerimeter=0;" parent="1" source="l3QMB8aYCtV3EK-DeP1m-29" target="G8CPrSdooPZw7x7xq0sv-33" edge="1">
          <mxGeometry relative="1" as="geometry">
            <mxPoint x="-278" y="612" as="sourcePoint" />
            <mxPoint x="34" y="-475.25" as="targetPoint" />
          </mxGeometry>
        </mxCell>
        <mxCell id="IurG1KyRiF0weZbXcjgm-29" value="0..n" style="endArrow=open;html=1;endSize=12;startArrow=diamondThin;startSize=14;startFill=1;edgeStyle=orthogonalEdgeStyle;align=left;verticalAlign=bottom;strokeWidth=1;exitX=0.712;exitY=1;exitDx=0;exitDy=0;exitPerimeter=0;entryX=0.25;entryY=0;entryDx=0;entryDy=0;" parent="1" source="29" target="nwWqg2h8W6zvY-KYqPRu-29" edge="1">
          <mxGeometry x="0.3684" y="3" relative="1" as="geometry">
            <mxPoint x="380" y="669" as="sourcePoint" />
            <mxPoint x="394" y="709" as="targetPoint" />
            <mxPoint y="1" as="offset" />
            <Array as="points" />
          </mxGeometry>
        </mxCell>
        <mxCell id="w0U1WXNURzkzdL44p-FK-29" value="&lt;p style=&quot;margin: 0px ; margin-top: 4px ; text-align: center ; text-decoration: underline&quot;&gt;&lt;b&gt;Verified Credential&lt;/b&gt;&lt;/p&gt;&lt;hr&gt;&lt;p style=&quot;margin: 0px ; margin-left: 8px&quot;&gt;id: ID&lt;/p&gt;&lt;p style=&quot;margin: 0px ; margin-left: 8px&quot;&gt;&lt;span&gt;type: string&lt;/span&gt;&lt;br&gt;&lt;/p&gt;&lt;p style=&quot;margin: 0px ; margin-left: 8px&quot;&gt;resourceID: Int&lt;/p&gt;&lt;p style=&quot;margin: 0px ; margin-left: 8px&quot;&gt;...&lt;/p&gt;" style="verticalAlign=top;align=left;overflow=fill;fontSize=12;fontFamily=Helvetica;html=1;strokeColor=#d79b00;shadow=1;fillColor=#CCCC00;" parent="1" vertex="1">
          <mxGeometry x="1738" y="141" width="166" height="92" as="geometry" />
        </mxCell>
        <mxCell id="w0U1WXNURzkzdL44p-FK-30" value="0..n" style="endArrow=open;html=1;endSize=12;startArrow=diamondThin;startSize=14;startFill=1;edgeStyle=orthogonalEdgeStyle;align=left;verticalAlign=bottom;strokeWidth=1;entryX=0.5;entryY=0;entryDx=0;entryDy=0;exitX=0.75;exitY=1;exitDx=0;exitDy=0;" parent="1" source="lNGriXrNwYLe0H3eNCdz-29" target="w0U1WXNURzkzdL44p-FK-29" edge="1">
          <mxGeometry x="0.3684" y="3" relative="1" as="geometry">
            <mxPoint x="1726" y="93" as="sourcePoint" />
            <mxPoint x="1641.684" y="147.644" as="targetPoint" />
            <mxPoint y="1" as="offset" />
          </mxGeometry>
        </mxCell>
        <mxCell id="w0U1WXNURzkzdL44p-FK-31" value="&lt;p style=&quot;margin: 0px ; margin-top: 4px ; text-align: center ; text-decoration: underline&quot;&gt;&lt;b&gt;AuthorizationPolicy&lt;/b&gt;&lt;/p&gt;&lt;hr&gt;&lt;p style=&quot;margin: 0px ; margin-left: 8px&quot;&gt;id: ID&lt;/p&gt;&lt;p style=&quot;margin: 0px ; margin-left: 8px&quot;&gt;&lt;span&gt;anonymousReadAccess: boolean&lt;/span&gt;&lt;br&gt;&lt;/p&gt;&lt;p style=&quot;margin: 0px ; margin-left: 8px&quot;&gt;credentialRules: CredentialRule[]&lt;/p&gt;&lt;p style=&quot;margin: 0px ; margin-left: 8px&quot;&gt;verifiedCredentialRules: VerifiedCredentialRule[]&lt;/p&gt;&lt;p style=&quot;margin: 0px ; margin-left: 8px&quot;&gt;privilegeRules: PrivilegeRule[]&lt;/p&gt;" style="verticalAlign=top;align=left;overflow=fill;fontSize=12;fontFamily=Helvetica;html=1;strokeColor=#d79b00;shadow=1;fillColor=#FFFFCC;" parent="1" vertex="1">
          <mxGeometry x="1654" y="313" width="271" height="117" as="geometry" />
        </mxCell>
        <mxCell id="w0U1WXNURzkzdL44p-FK-33" value="0..n" style="endArrow=open;html=1;endSize=12;startArrow=diamondThin;startSize=14;startFill=1;edgeStyle=orthogonalEdgeStyle;align=left;verticalAlign=bottom;strokeWidth=1;entryX=0.75;entryY=0;entryDx=0;entryDy=0;exitX=0.205;exitY=1.029;exitDx=0;exitDy=0;exitPerimeter=0;" parent="1" source="w0U1WXNURzkzdL44p-FK-31" target="E1yKPfijJHyPbYJbG4GJ-32" edge="1">
          <mxGeometry relative="1" as="geometry">
            <mxPoint x="1654" y="432" as="sourcePoint" />
            <mxPoint x="1775" y="472.0000000000001" as="targetPoint" />
          </mxGeometry>
        </mxCell>
        <mxCell id="w0U1WXNURzkzdL44p-FK-34" value="&lt;p style=&quot;margin: 0px ; margin-top: 4px ; text-align: center ; text-decoration: underline&quot;&gt;&lt;b&gt;CredentialRule&lt;/b&gt;&lt;/p&gt;&lt;hr&gt;&lt;p style=&quot;margin: 0px ; margin-left: 8px&quot;&gt;id: ID&lt;/p&gt;&lt;p style=&quot;margin: 0px ; margin-left: 8px&quot;&gt;grantedPrivilege: Privilege[]&lt;/p&gt;&lt;p style=&quot;margin: 0px ; margin-left: 8px&quot;&gt;inherited: boolean&lt;/p&gt;&lt;p style=&quot;margin: 0px ; margin-left: 8px&quot;&gt;&lt;span&gt;type: string&lt;/span&gt;&lt;br&gt;&lt;/p&gt;&lt;p style=&quot;margin: 0px ; margin-left: 8px&quot;&gt;resourceID: ID&lt;br&gt;&lt;/p&gt;" style="verticalAlign=top;align=left;overflow=fill;fontSize=12;fontFamily=Helvetica;html=1;strokeColor=#d79b00;shadow=1;fillColor=#FFFFCC;" parent="1" vertex="1">
          <mxGeometry x="1710" y="493.0000000000001" width="166" height="117" as="geometry" />
        </mxCell>
        <mxCell id="w0U1WXNURzkzdL44p-FK-35" value="0..n" style="endArrow=open;html=1;endSize=12;startArrow=diamondThin;startSize=14;startFill=1;edgeStyle=orthogonalEdgeStyle;align=left;verticalAlign=bottom;strokeWidth=1;entryX=0.474;entryY=0.007;entryDx=0;entryDy=0;entryPerimeter=0;exitX=0.544;exitY=0.981;exitDx=0;exitDy=0;exitPerimeter=0;" parent="1" source="w0U1WXNURzkzdL44p-FK-31" target="w0U1WXNURzkzdL44p-FK-34" edge="1">
          <mxGeometry x="0.3684" y="3" relative="1" as="geometry">
            <mxPoint x="1584" y="392" as="sourcePoint" />
            <mxPoint x="1725" y="461.5300000000001" as="targetPoint" />
            <mxPoint y="1" as="offset" />
          </mxGeometry>
        </mxCell>
        <mxCell id="w0U1WXNURzkzdL44p-FK-37" value="&lt;p style=&quot;margin: 0px ; margin-top: 4px ; text-align: center ; text-decoration: underline&quot;&gt;&lt;b&gt;Privilege&lt;/b&gt;&lt;/p&gt;&lt;hr&gt;&lt;p style=&quot;margin: 0px ; margin-left: 8px&quot;&gt;id: ID&lt;/p&gt;&lt;p style=&quot;margin: 0px ; margin-left: 8px&quot;&gt;&lt;span&gt;type: string&lt;/span&gt;&lt;/p&gt;" style="verticalAlign=top;align=left;overflow=fill;fontSize=12;fontFamily=Helvetica;html=1;strokeColor=#d79b00;shadow=1;fillColor=#FFFFCC;" parent="1" vertex="1">
          <mxGeometry x="1477" y="337.00000000000006" width="121" height="82" as="geometry" />
        </mxCell>
        <mxCell id="E1yKPfijJHyPbYJbG4GJ-29" value="&lt;p style=&quot;margin: 0px ; margin-top: 4px ; text-align: center ; text-decoration: underline&quot;&gt;&lt;b&gt;Communication&lt;/b&gt;&lt;/p&gt;&lt;hr&gt;&lt;p style=&quot;margin: 0px ; margin-left: 8px&quot;&gt;id: ID&lt;/p&gt;&lt;p style=&quot;margin: 0px ; margin-left: 8px&quot;&gt;&lt;span&gt;updates: Updates&lt;/span&gt;&lt;/p&gt;&lt;p style=&quot;margin: 0px ; margin-left: 8px&quot;&gt;discussions: Discussion[]&lt;/p&gt;" style="verticalAlign=top;align=left;overflow=fill;fontSize=12;fontFamily=Helvetica;html=1;strokeColor=#82b366;shadow=1;fillColor=#CCFFCC;" parent="1" vertex="1">
          <mxGeometry x="666" y="272" width="175" height="92" as="geometry" />
        </mxCell>
        <mxCell id="E1yKPfijJHyPbYJbG4GJ-30" value="&lt;p style=&quot;margin: 0px ; margin-top: 4px ; text-align: center ; text-decoration: underline&quot;&gt;&lt;b&gt;Discussion&lt;/b&gt;&lt;/p&gt;&lt;hr&gt;&lt;p style=&quot;margin: 0px ; margin-left: 8px&quot;&gt;id: ID&lt;/p&gt;&lt;p style=&quot;margin: 0px ; margin-left: 8px&quot;&gt;&lt;span&gt;messages: Message[]&lt;/span&gt;&lt;/p&gt;&lt;p style=&quot;margin: 0px ; margin-left: 8px&quot;&gt;category: string&lt;/p&gt;&lt;p style=&quot;margin: 0px ; margin-left: 8px&quot;&gt;profile: Profile&lt;/p&gt;&lt;p style=&quot;margin: 0px ; margin-left: 8px&quot;&gt;createdBy: User&lt;/p&gt;&lt;p style=&quot;margin: 0px ; margin-left: 8px&quot;&gt;createdAt: Date&lt;/p&gt;" style="verticalAlign=top;align=left;overflow=fill;fontSize=12;fontFamily=Helvetica;html=1;strokeColor=#82b366;shadow=1;fillColor=#CCFFCC;" parent="1" vertex="1">
          <mxGeometry x="664" y="528" width="156" height="131" as="geometry" />
        </mxCell>
        <mxCell id="E1yKPfijJHyPbYJbG4GJ-31" value="&lt;p style=&quot;margin: 0px ; margin-top: 4px ; text-align: center ; text-decoration: underline&quot;&gt;&lt;b&gt;PrivilegeRule&lt;/b&gt;&lt;/p&gt;&lt;hr&gt;&lt;p style=&quot;margin: 0px ; margin-left: 8px&quot;&gt;id: ID&lt;/p&gt;&lt;p style=&quot;margin: 0px ; margin-left: 8px&quot;&gt;grantedPrivilege: Privilege[]&lt;br&gt;&lt;/p&gt;&lt;p style=&quot;margin: 0px ; margin-left: 8px&quot;&gt;inherited: boolean&lt;/p&gt;&lt;p style=&quot;margin: 0px ; margin-left: 8px&quot;&gt;privilege: Privilege&lt;/p&gt;" style="verticalAlign=top;align=left;overflow=fill;fontSize=12;fontFamily=Helvetica;html=1;strokeColor=#d79b00;shadow=1;fillColor=#FFFFCC;" parent="1" vertex="1">
          <mxGeometry x="1899" y="496.0000000000001" width="177" height="114" as="geometry" />
        </mxCell>
        <mxCell id="E1yKPfijJHyPbYJbG4GJ-32" value="&lt;p style=&quot;margin: 0px ; margin-top: 4px ; text-align: center ; text-decoration: underline&quot;&gt;&lt;b&gt;VerifiedCredentialRule&lt;/b&gt;&lt;/p&gt;&lt;hr&gt;&lt;p style=&quot;margin: 0px ; margin-left: 8px&quot;&gt;id: ID&lt;/p&gt;&lt;p style=&quot;margin: 0px ; margin-left: 8px&quot;&gt;grantedPrivilege: Privilege[]&lt;/p&gt;&lt;p style=&quot;margin: 0px ; margin-left: 8px&quot;&gt;inherited: boolean&lt;/p&gt;&lt;p style=&quot;margin: 0px ; margin-left: 8px&quot;&gt;&lt;span&gt;type: string&lt;/span&gt;&lt;br&gt;&lt;/p&gt;&lt;p style=&quot;margin: 0px ; margin-left: 8px&quot;&gt;resourceID: ID&lt;br&gt;&lt;/p&gt;" style="verticalAlign=top;align=left;overflow=fill;fontSize=12;fontFamily=Helvetica;html=1;strokeColor=#d79b00;shadow=1;fillColor=#FFFFCC;" parent="1" vertex="1">
          <mxGeometry x="1522" y="493.0000000000001" width="166" height="117" as="geometry" />
        </mxCell>
        <mxCell id="E1yKPfijJHyPbYJbG4GJ-33" value="0..n" style="endArrow=open;html=1;endSize=12;startArrow=diamondThin;startSize=14;startFill=1;edgeStyle=orthogonalEdgeStyle;align=left;verticalAlign=bottom;strokeWidth=1;entryX=0.345;entryY=0.026;entryDx=0;entryDy=0;exitX=0.924;exitY=0.981;exitDx=0;exitDy=0;entryPerimeter=0;exitPerimeter=0;" parent="1" source="w0U1WXNURzkzdL44p-FK-31" target="E1yKPfijJHyPbYJbG4GJ-31" edge="1">
          <mxGeometry x="0.3684" y="3" relative="1" as="geometry">
            <mxPoint x="1777.25" y="425" as="sourcePoint" />
            <mxPoint x="1785" y="482.0000000000001" as="targetPoint" />
            <mxPoint y="1" as="offset" />
          </mxGeometry>
        </mxCell>
        <mxCell id="E1yKPfijJHyPbYJbG4GJ-35" value="&lt;p style=&quot;margin: 0px ; margin-top: 4px ; text-align: center ; text-decoration: underline&quot;&gt;&lt;b&gt;Comments&lt;/b&gt;&lt;/p&gt;&lt;hr&gt;&lt;p style=&quot;margin: 0px ; margin-left: 8px&quot;&gt;id: ID&lt;/p&gt;&lt;p style=&quot;margin: 0px ; margin-left: 8px&quot;&gt;&lt;span&gt;messages: Message[]&lt;/span&gt;&lt;/p&gt;" style="verticalAlign=top;align=left;overflow=fill;fontSize=12;fontFamily=Helvetica;html=1;strokeColor=#666666;shadow=1;fillColor=#d1ffca;fontColor=#333333;" parent="1" vertex="1">
          <mxGeometry x="664" y="676" width="158" height="86" as="geometry" />
        </mxCell>
        <mxCell id="E1yKPfijJHyPbYJbG4GJ-38" value="" style="edgeStyle=orthogonalEdgeStyle;fontSize=12;html=1;endArrow=ERmandOne;startArrow=ERmandOne;exitX=0.5;exitY=1;exitDx=0;exitDy=0;entryX=0.25;entryY=0;entryDx=0;entryDy=0;" parent="1" source="E1yKPfijJHyPbYJbG4GJ-29" target="E1yKPfijJHyPbYJbG4GJ-34" edge="1">
          <mxGeometry width="100" height="100" relative="1" as="geometry">
            <mxPoint x="1545.5" y="656.0079999999998" as="sourcePoint" />
            <mxPoint x="1649.5" y="676.25" as="targetPoint" />
          </mxGeometry>
        </mxCell>
        <mxCell id="E1yKPfijJHyPbYJbG4GJ-39" value="&lt;p style=&quot;margin: 0px ; margin-top: 4px ; text-align: center ; text-decoration: underline&quot;&gt;&lt;b&gt;Whiteboard&lt;/b&gt;&lt;/p&gt;&lt;hr&gt;&lt;p style=&quot;margin: 0px ; margin-left: 8px&quot;&gt;id: ID&lt;/p&gt;&lt;p style=&quot;margin: 0px ; margin-left: 8px&quot;&gt;nameID: string&lt;/p&gt;&lt;p style=&quot;margin: 0px ; margin-left: 8px&quot;&gt;profile: Profile&lt;/p&gt;&lt;p style=&quot;margin: 0px ; margin-left: 8px&quot;&gt;content: WhiteboardContent&lt;/p&gt;&lt;p style=&quot;margin: 0px ; margin-left: 8px&quot;&gt;checkout: CanvasCheckout&lt;/p&gt;" style="verticalAlign=top;align=left;overflow=fill;fontSize=12;fontFamily=Helvetica;html=1;strokeColor=#666666;shadow=1;fillColor=#FFFFCC;fontColor=#333333;opacity=60;" parent="1" vertex="1">
          <mxGeometry x="-233" y="714" width="176" height="138" as="geometry" />
        </mxCell>
        <mxCell id="E1yKPfijJHyPbYJbG4GJ-40" value="0..n" style="endArrow=open;html=1;endSize=12;startArrow=diamondThin;startSize=14;startFill=1;edgeStyle=orthogonalEdgeStyle;align=left;verticalAlign=bottom;strokeWidth=1;entryX=0.5;entryY=0;entryDx=0;entryDy=0;exitX=0.75;exitY=1;exitDx=0;exitDy=0;" parent="1" source="l3QMB8aYCtV3EK-DeP1m-29" target="E1yKPfijJHyPbYJbG4GJ-39" edge="1">
          <mxGeometry relative="1" as="geometry">
            <mxPoint x="-204" y="614" as="sourcePoint" />
            <mxPoint x="-416.5" y="-230" as="targetPoint" />
          </mxGeometry>
        </mxCell>
        <mxCell id="E1yKPfijJHyPbYJbG4GJ-41" value="&lt;p style=&quot;margin: 0px ; margin-top: 4px ; text-align: center ; text-decoration: underline&quot;&gt;&lt;b&gt;Visual&lt;/b&gt;&lt;/p&gt;&lt;hr&gt;&lt;p style=&quot;margin: 0px ; margin-left: 8px&quot;&gt;id: ID&lt;/p&gt;&lt;p style=&quot;margin: 0px ; margin-left: 8px&quot;&gt;type: VisualType&lt;/p&gt;&lt;p style=&quot;margin: 0px ; margin-left: 8px&quot;&gt;uri: string&lt;/p&gt;&lt;p style=&quot;margin: 0px ; margin-left: 8px&quot;&gt;alternateText: string&lt;/p&gt;" style="verticalAlign=top;align=left;overflow=fill;fontSize=12;fontFamily=Helvetica;html=1;strokeColor=#666666;shadow=1;fillColor=#f5f5f5;fontColor=#333333;" parent="1" vertex="1">
          <mxGeometry x="1317" y="500" width="136" height="100" as="geometry" />
        </mxCell>
        <mxCell id="E1yKPfijJHyPbYJbG4GJ-42" value="" style="edgeStyle=orthogonalEdgeStyle;fontSize=12;html=1;endArrow=ERmandOne;startArrow=ERmandOne;entryX=0;entryY=0.25;entryDx=0;entryDy=0;exitX=1;exitY=0.5;exitDx=0;exitDy=0;" parent="1" source="nwWqg2h8W6zvY-KYqPRu-40" target="g109RXZzPeZsBb1zn4cU-146" edge="1">
          <mxGeometry width="100" height="100" relative="1" as="geometry">
            <mxPoint x="373.20024999999976" y="458.298125" as="sourcePoint" />
            <mxPoint x="560.13" y="429.5" as="targetPoint" />
          </mxGeometry>
        </mxCell>
        <mxCell id="FQ2XHo6aB85YoyOK63lh-30" style="edgeStyle=orthogonalEdgeStyle;rounded=0;orthogonalLoop=1;jettySize=auto;html=1;exitX=0.5;exitY=1;exitDx=0;exitDy=0;startArrow=block;startFill=0;endArrow=none;endFill=0;" parent="1" source="FQ2XHo6aB85YoyOK63lh-29" target="22" edge="1">
          <mxGeometry relative="1" as="geometry" />
        </mxCell>
        <mxCell id="FQ2XHo6aB85YoyOK63lh-31" style="edgeStyle=orthogonalEdgeStyle;rounded=0;orthogonalLoop=1;jettySize=auto;html=1;exitX=0.5;exitY=1;exitDx=0;exitDy=0;startArrow=block;startFill=0;endArrow=none;endFill=0;" parent="1" source="FQ2XHo6aB85YoyOK63lh-29" target="g109RXZzPeZsBb1zn4cU-143" edge="1">
          <mxGeometry relative="1" as="geometry" />
        </mxCell>
        <mxCell id="FQ2XHo6aB85YoyOK63lh-29" value="&lt;p style=&quot;margin: 0px ; margin-top: 4px ; text-align: center ; text-decoration: underline&quot;&gt;&lt;b&gt;Contributor&lt;/b&gt;&lt;/p&gt;&lt;hr&gt;&lt;p style=&quot;margin: 0px ; margin-left: 8px&quot;&gt;id: ID&lt;/p&gt;&lt;p style=&quot;margin: 0px ; margin-left: 8px&quot;&gt;nameID: String&lt;/p&gt;&lt;p style=&quot;margin: 0px ; margin-left: 8px&quot;&gt;&lt;span style=&quot;background-color: initial;&quot;&gt;profile: Profile&lt;/span&gt;&lt;/p&gt;&lt;p style=&quot;margin: 0px ; margin-left: 8px&quot;&gt;&lt;span style=&quot;background-color: initial;&quot;&gt;agent: Agent&lt;/span&gt;&lt;br&gt;&lt;/p&gt;" style="verticalAlign=top;align=left;overflow=fill;fontSize=12;fontFamily=Helvetica;html=1;strokeColor=#003366;shadow=1;fontColor=#003366;fillColor=#99FFCC;" parent="1" vertex="1">
          <mxGeometry x="1078.5" y="-21" width="167" height="110" as="geometry" />
        </mxCell>
        <mxCell id="FQ2XHo6aB85YoyOK63lh-32" value="" style="endArrow=open;html=1;endSize=12;startArrow=diamondThin;startSize=14;startFill=1;edgeStyle=orthogonalEdgeStyle;align=left;verticalAlign=bottom;strokeWidth=1;entryX=0.5;entryY=1;entryDx=0;entryDy=0;exitX=0.5;exitY=0;exitDx=0;exitDy=0;" parent="1" source="g109RXZzPeZsBb1zn4cU-131" target="22" edge="1">
          <mxGeometry relative="1" as="geometry">
            <mxPoint x="1192" y="233.5" as="sourcePoint" />
            <mxPoint x="1136" y="234" as="targetPoint" />
          </mxGeometry>
        </mxCell>
        <mxCell id="FQ2XHo6aB85YoyOK63lh-33" value="" style="endArrow=open;html=1;endSize=12;startArrow=diamondThin;startSize=14;startFill=1;edgeStyle=orthogonalEdgeStyle;align=left;verticalAlign=bottom;strokeWidth=1;entryX=1;entryY=0.5;entryDx=0;entryDy=0;exitX=0;exitY=0.75;exitDx=0;exitDy=0;" parent="1" source="g109RXZzPeZsBb1zn4cU-143" target="g109RXZzPeZsBb1zn4cU-131" edge="1">
          <mxGeometry relative="1" as="geometry">
            <mxPoint x="1192" y="233.5" as="sourcePoint" />
            <mxPoint x="1136" y="234" as="targetPoint" />
          </mxGeometry>
        </mxCell>
        <mxCell id="FQ2XHo6aB85YoyOK63lh-34" value="&lt;p style=&quot;margin: 0px ; margin-top: 4px ; text-align: center ; text-decoration: underline&quot;&gt;&lt;b&gt;Location&lt;/b&gt;&lt;/p&gt;&lt;hr&gt;&lt;p style=&quot;margin: 0px ; margin-left: 8px&quot;&gt;id: ID&lt;/p&gt;&lt;p style=&quot;margin: 0px ; margin-left: 8px&quot;&gt;country: string&lt;/p&gt;&lt;p style=&quot;margin: 0px ; margin-left: 8px&quot;&gt;city: string&lt;/p&gt;" style="verticalAlign=top;align=left;overflow=fill;fontSize=12;fontFamily=Helvetica;html=1;strokeColor=#666666;shadow=1;fillColor=#f5f5f5;fontColor=#333333;" parent="1" vertex="1">
          <mxGeometry x="1106" y="702" width="142" height="94" as="geometry" />
        </mxCell>
        <mxCell id="FQ2XHo6aB85YoyOK63lh-37" value="" style="edgeStyle=orthogonalEdgeStyle;fontSize=12;html=1;endArrow=ERmandOne;startArrow=ERmandOne;exitX=0.5;exitY=1;exitDx=0;exitDy=0;entryX=0.5;entryY=0;entryDx=0;entryDy=0;" parent="1" source="szzaWboSxo6sRydHjCB_-29" target="E1yKPfijJHyPbYJbG4GJ-29" edge="1">
          <mxGeometry width="100" height="100" relative="1" as="geometry">
            <mxPoint x="700.75" y="507" as="sourcePoint" />
            <mxPoint x="688.5" y="564" as="targetPoint" />
          </mxGeometry>
        </mxCell>
        <mxCell id="fy6HlwIQvY-UTlpl7jCo-104" value="&lt;p style=&quot;margin: 0px ; margin-top: 4px ; text-align: center ; text-decoration: underline&quot;&gt;&lt;b&gt;Lifecycle&lt;/b&gt;&lt;/p&gt;&lt;hr&gt;&lt;p style=&quot;margin: 0px ; margin-left: 8px&quot;&gt;id: ID&lt;/p&gt;&lt;p style=&quot;margin: 0px ; margin-left: 8px&quot;&gt;machineDef: JSON&lt;/p&gt;&lt;p style=&quot;margin: 0px ; margin-left: 8px&quot;&gt;machineState: JSON&lt;/p&gt;&lt;p style=&quot;margin: 0px ; margin-left: 8px&quot;&gt;nextEvents: string[]&lt;/p&gt;" style="verticalAlign=top;align=left;overflow=fill;fontSize=12;fontFamily=Helvetica;html=1;strokeColor=#666666;shadow=1;fillColor=#FFE599;fontColor=#333333;" parent="1" vertex="1">
          <mxGeometry x="632" y="964" width="160" height="99" as="geometry" />
        </mxCell>
        <mxCell id="XHzrQX2ppPqFaPMvTT7x-39" value="&lt;p style=&quot;margin: 0px ; margin-top: 4px ; text-align: center ; text-decoration: underline&quot;&gt;&lt;b&gt;Collaboration&lt;/b&gt;&lt;/p&gt;&lt;hr&gt;&lt;p style=&quot;margin: 0px ; margin-left: 8px&quot;&gt;id: ID&lt;/p&gt;&lt;p style=&quot;margin: 0px ; margin-left: 8px&quot;&gt;callOuts: CallOut[]&lt;/p&gt;&lt;p style=&quot;margin: 0px ; margin-left: 8px&quot;&gt;relations: Relation[]&lt;br&gt;&lt;/p&gt;&lt;p style=&quot;margin: 0px ; margin-left: 8px&quot;&gt;tagsetTemplateSet: TagsetTemplateSet&lt;/p&gt;" style="verticalAlign=top;align=left;overflow=fill;fontSize=12;fontFamily=Helvetica;html=1;strokeColor=default;shadow=1;fillColor=#FFFFCC;opacity=60;" parent="1" vertex="1">
          <mxGeometry x="-358" y="298" width="237" height="122" as="geometry" />
        </mxCell>
        <mxCell id="XHzrQX2ppPqFaPMvTT7x-46" value="" style="endArrow=none;html=1;endSize=12;startArrow=diamondThin;startSize=14;startFill=1;edgeStyle=orthogonalEdgeStyle;align=left;verticalAlign=bottom;strokeWidth=1;exitX=0.5;exitY=1;exitDx=0;exitDy=0;entryX=0.5;entryY=0;entryDx=0;entryDy=0;" parent="1" source="nwWqg2h8W6zvY-KYqPRu-29" target="crgheHHrN_SQFuG_95Lk-115" edge="1">
          <mxGeometry relative="1" as="geometry">
            <mxPoint x="86" y="795" as="sourcePoint" />
            <mxPoint x="569" y="811" as="targetPoint" />
          </mxGeometry>
        </mxCell>
        <mxCell id="XHzrQX2ppPqFaPMvTT7x-48" value="&lt;p style=&quot;margin: 0px ; margin-top: 4px ; text-align: center ; text-decoration: underline&quot;&gt;&lt;strong&gt;ChallengeBase&lt;/strong&gt;&lt;/p&gt;&lt;hr&gt;&lt;p style=&quot;margin: 0px ; margin-left: 8px&quot;&gt;id: ID&lt;/p&gt;&lt;p style=&quot;margin: 0px ; margin-left: 8px&quot;&gt;nameID: string&lt;/p&gt;&lt;p style=&quot;margin: 0px ; margin-left: 8px&quot;&gt;context: Context&lt;/p&gt;&lt;p style=&quot;margin: 0px ; margin-left: 8px&quot;&gt;community: Community&lt;/p&gt;&lt;p style=&quot;margin: 0px ; margin-left: 8px&quot;&gt;profile: Profile&lt;/p&gt;&lt;p style=&quot;margin: 0px ; margin-left: 8px&quot;&gt;collaboration: Collaboration&lt;/p&gt;&lt;p style=&quot;margin: 0px 0px 0px 8px&quot;&gt;&lt;span&gt;agent: Agent&lt;/span&gt;&lt;br&gt;&lt;/p&gt;&lt;p style=&quot;margin: 0px 0px 0px 8px&quot;&gt;&lt;br&gt;&lt;/p&gt;&lt;div&gt;&lt;span&gt;&lt;br&gt;&lt;/span&gt;&lt;/div&gt;" style="verticalAlign=top;align=left;overflow=fill;fontSize=12;fontFamily=Helvetica;html=1;strokeColor=#003366;shadow=1;fontColor=#003366;fillColor=#3399FF;" parent="1" vertex="1">
          <mxGeometry x="271" y="44" width="201" height="172" as="geometry" />
        </mxCell>
        <mxCell id="XHzrQX2ppPqFaPMvTT7x-54" value="" style="endArrow=block;endSize=10;endFill=0;shadow=0;strokeWidth=1;rounded=0;edgeStyle=elbowEdgeStyle;elbow=vertical;exitX=0.5;exitY=0;exitDx=0;exitDy=0;entryX=0.25;entryY=1;entryDx=0;entryDy=0;fillColor=#b0e3e6;strokeColor=#0e8088;opacity=60;" parent="1" source="XHzrQX2ppPqFaPMvTT7x-69" target="XHzrQX2ppPqFaPMvTT7x-48" edge="1">
          <mxGeometry width="160" relative="1" as="geometry">
            <mxPoint x="159.5" y="272" as="sourcePoint" />
            <mxPoint x="-50.75" y="682" as="targetPoint" />
          </mxGeometry>
        </mxCell>
        <mxCell id="XHzrQX2ppPqFaPMvTT7x-55" value="" style="endArrow=block;endSize=10;endFill=0;shadow=0;strokeWidth=1;rounded=0;edgeStyle=elbowEdgeStyle;elbow=vertical;exitX=0.5;exitY=0;exitDx=0;exitDy=0;entryX=0.5;entryY=1;entryDx=0;entryDy=0;fillColor=#b0e3e6;strokeColor=#0e8088;opacity=60;" parent="1" source="29" target="XHzrQX2ppPqFaPMvTT7x-48" edge="1">
          <mxGeometry width="160" relative="1" as="geometry">
            <mxPoint x="234.93499999999995" y="300" as="sourcePoint" />
            <mxPoint x="330.5" y="243" as="targetPoint" />
          </mxGeometry>
        </mxCell>
        <mxCell id="XHzrQX2ppPqFaPMvTT7x-56" value="" style="endArrow=block;endSize=10;endFill=0;shadow=0;strokeWidth=1;rounded=0;edgeStyle=elbowEdgeStyle;elbow=vertical;exitX=0.75;exitY=0;exitDx=0;exitDy=0;entryX=0.75;entryY=1;entryDx=0;entryDy=0;fillColor=#b0e3e6;strokeColor=#0e8088;opacity=60;startArrow=none;" parent="1" source="nwWqg2h8W6zvY-KYqPRu-29" target="XHzrQX2ppPqFaPMvTT7x-48" edge="1">
          <mxGeometry width="160" relative="1" as="geometry">
            <mxPoint x="340.94225000000006" y="444.98198" as="sourcePoint" />
            <mxPoint x="380" y="243" as="targetPoint" />
            <Array as="points">
              <mxPoint x="462" y="323" />
            </Array>
          </mxGeometry>
        </mxCell>
        <mxCell id="XHzrQX2ppPqFaPMvTT7x-57" value="" style="edgeStyle=orthogonalEdgeStyle;fontSize=12;html=1;endArrow=ERmandOne;startArrow=ERmandOne;exitX=1;exitY=0.25;exitDx=0;exitDy=0;entryX=0;entryY=0.75;entryDx=0;entryDy=0;" parent="1" source="XHzrQX2ppPqFaPMvTT7x-39" target="XHzrQX2ppPqFaPMvTT7x-48" edge="1">
          <mxGeometry width="100" height="100" relative="1" as="geometry">
            <mxPoint x="145.5" y="-78.875" as="sourcePoint" />
            <mxPoint x="340" y="-16" as="targetPoint" />
            <Array as="points">
              <mxPoint x="26" y="332" />
              <mxPoint x="26" y="182" />
            </Array>
          </mxGeometry>
        </mxCell>
        <mxCell id="XHzrQX2ppPqFaPMvTT7x-66" value="" style="group" parent="1" vertex="1" connectable="0">
          <mxGeometry x="266" y="375" width="217" height="175" as="geometry" />
        </mxCell>
        <mxCell id="29" value="&lt;p style=&quot;margin: 0px ; margin-top: 4px ; text-align: center ; text-decoration: underline&quot;&gt;&lt;strong&gt;Challenge&lt;/strong&gt;&lt;/p&gt;&lt;hr&gt;&amp;nbsp; &amp;nbsp;innovationFlow: InnovationFlow&lt;br&gt;&lt;p style=&quot;margin: 0px ; margin-left: 8px&quot;&gt;&lt;span style=&quot;background-color: initial;&quot;&gt;opportunities: Opportunity[]&lt;/span&gt;&lt;br&gt;&lt;/p&gt;&lt;p style=&quot;margin: 0px ; margin-left: 8px&quot;&gt;&lt;span style=&quot;background-color: initial;&quot;&gt;challenges: Challenges[]&lt;/span&gt;&lt;/p&gt;&lt;p style=&quot;margin: 0px ; margin-left: 8px&quot;&gt;&lt;span style=&quot;background-color: initial;&quot;&gt;preferences: Preference[]&lt;/span&gt;&lt;/p&gt;&lt;p style=&quot;margin: 0px ; margin-left: 8px&quot;&gt;storage: StorageBucket&lt;/p&gt;&lt;div&gt;&lt;span&gt;&lt;br&gt;&lt;/span&gt;&lt;/div&gt;" style="verticalAlign=top;align=left;overflow=fill;fontSize=12;fontFamily=Helvetica;html=1;strokeColor=#003366;shadow=1;fontColor=#003366;fillColor=#3399FF;" parent="XHzrQX2ppPqFaPMvTT7x-66" vertex="1">
          <mxGeometry width="217" height="118.1528662420382" as="geometry" />
        </mxCell>
        <mxCell id="nwWqg2h8W6zvY-KYqPRu-36" value="" style="ellipse;whiteSpace=wrap;html=1;aspect=fixed;" parent="XHzrQX2ppPqFaPMvTT7x-66" vertex="1">
          <mxGeometry x="14.501080760095022" y="109.23746661187594" width="10.722091458137694" height="10.722091458137694" as="geometry" />
        </mxCell>
        <mxCell id="nwWqg2h8W6zvY-KYqPRu-35" value="0..n" style="endArrow=open;html=1;endSize=12;startArrow=diamondThin;startSize=14;startFill=1;edgeStyle=orthogonalEdgeStyle;align=left;verticalAlign=bottom;strokeWidth=1;exitX=0.25;exitY=1;exitDx=0;exitDy=0;entryX=0;entryY=1;entryDx=0;entryDy=0;" parent="XHzrQX2ppPqFaPMvTT7x-66" source="29" target="nwWqg2h8W6zvY-KYqPRu-36" edge="1">
          <mxGeometry x="-330.5" y="-152.70700636942675" as="geometry">
            <mxPoint x="100.16545427553444" y="198.58886377645362" as="sourcePoint" />
            <mxPoint x="32.5" y="210.76910828025478" as="targetPoint" />
            <mxPoint x="-26" y="35" as="offset" />
            <Array as="points">
              <mxPoint x="54.5" y="174.99999999999997" />
              <mxPoint x="16.5" y="174.99999999999997" />
            </Array>
          </mxGeometry>
        </mxCell>
        <mxCell id="E1yKPfijJHyPbYJbG4GJ-34" value="&lt;p style=&quot;margin: 0px ; margin-top: 4px ; text-align: center ; text-decoration: underline&quot;&gt;&lt;b&gt;Updates&lt;/b&gt;&lt;/p&gt;&lt;hr&gt;&lt;p style=&quot;margin: 0px ; margin-left: 8px&quot;&gt;id: ID&lt;/p&gt;&lt;p style=&quot;margin: 0px ; margin-left: 8px&quot;&gt;&lt;span&gt;messages: Message[]&lt;/span&gt;&lt;/p&gt;" style="verticalAlign=top;align=left;overflow=fill;fontSize=12;fontFamily=Helvetica;html=1;strokeColor=#82b366;shadow=1;fillColor=#CCFFCC;" parent="1" vertex="1">
          <mxGeometry x="645" y="410" width="159" height="73" as="geometry" />
        </mxCell>
        <mxCell id="XHzrQX2ppPqFaPMvTT7x-68" value="0..n" style="endArrow=open;html=1;endSize=12;startArrow=diamondThin;startSize=14;startFill=1;edgeStyle=orthogonalEdgeStyle;align=left;verticalAlign=bottom;strokeWidth=1;exitX=0.794;exitY=1;exitDx=0;exitDy=0;entryX=0.75;entryY=0;entryDx=0;entryDy=0;exitPerimeter=0;" parent="1" source="E1yKPfijJHyPbYJbG4GJ-29" target="E1yKPfijJHyPbYJbG4GJ-30" edge="1">
          <mxGeometry relative="1" as="geometry">
            <mxPoint x="169.5" y="365" as="sourcePoint" />
            <mxPoint x="276" y="438" as="targetPoint" />
            <Array as="points">
              <mxPoint x="805" y="394" />
              <mxPoint x="822" y="394" />
              <mxPoint x="822" y="506" />
              <mxPoint x="781" y="506" />
            </Array>
          </mxGeometry>
        </mxCell>
        <mxCell id="XHzrQX2ppPqFaPMvTT7x-69" value="&lt;p style=&quot;margin: 0px ; margin-top: 4px ; text-align: center ; text-decoration: underline&quot;&gt;&lt;b&gt;&lt;font color=&quot;#003366&quot;&gt;Space&lt;/font&gt;&lt;/b&gt;&lt;/p&gt;&lt;hr&gt;&lt;p style=&quot;margin: 0px 0px 0px 8px;&quot;&gt;&lt;font color=&quot;#003366&quot;&gt;host: Organization&lt;/font&gt;&lt;/p&gt;&lt;p style=&quot;margin: 0px 0px 0px 8px;&quot;&gt;&lt;font color=&quot;#003366&quot;&gt;challenges: Challenge[]&lt;/font&gt;&lt;/p&gt;&lt;div style=&quot;&quot;&gt;&lt;font color=&quot;#003366&quot;&gt;&amp;nbsp; &amp;nbsp;templates: TemplatesSet&lt;/font&gt;&lt;/div&gt;&lt;div style=&quot;&quot;&gt;&lt;font color=&quot;#003366&quot;&gt;&amp;nbsp; &amp;nbsp;preferences: Preference[]&lt;/font&gt;&lt;/div&gt;&lt;div style=&quot;&quot;&gt;&amp;nbsp; &amp;nbsp;timeline: Timeline&lt;/div&gt;&lt;div style=&quot;&quot;&gt;&amp;nbsp; &amp;nbsp;storage: StorageBucket&lt;/div&gt;" style="verticalAlign=top;align=left;overflow=fill;fontSize=12;fontFamily=Helvetica;html=1;strokeColor=#6c8ebf;shadow=1;fillColor=#99CCFF;" parent="1" vertex="1">
          <mxGeometry x="75" y="253" width="172" height="127" as="geometry" />
        </mxCell>
        <mxCell id="l3QMB8aYCtV3EK-DeP1m-29" value="&lt;p style=&quot;margin: 0px ; margin-top: 4px ; text-align: center ; text-decoration: underline&quot;&gt;&lt;b&gt;CallOut&lt;/b&gt;&lt;/p&gt;&lt;hr&gt;&lt;p style=&quot;margin: 0px 0px 0px 8px;&quot;&gt;id: ID&lt;/p&gt;&lt;p style=&quot;margin: 0px 0px 0px 8px;&quot;&gt;type: CalloutType&lt;/p&gt;&amp;nbsp; nameID: NameID&lt;p style=&quot;margin: 0px 0px 0px 8px;&quot;&gt;profile: Profile&lt;/p&gt;&lt;p style=&quot;margin: 0px 0px 0px 8px;&quot;&gt;&lt;span style=&quot;background-color: initial;&quot;&gt;whiteboards: Whiteboard[]&lt;/span&gt;&lt;/p&gt;&lt;p style=&quot;margin: 0px 0px 0px 8px;&quot;&gt;&lt;span style=&quot;background-color: initial;&quot;&gt;whiteboardRt: WhiteboardRT&lt;/span&gt;&lt;/p&gt;&lt;p style=&quot;margin: 0px ; margin-left: 8px&quot;&gt;posts: Post[]&lt;/p&gt;&lt;p style=&quot;margin: 0px ; margin-left: 8px&quot;&gt;comments: Comment&lt;/p&gt;&lt;p style=&quot;margin: 0px ; margin-left: 8px&quot;&gt;state: CalloutState&lt;/p&gt;" style="verticalAlign=top;align=left;overflow=fill;fontSize=12;fontFamily=Helvetica;html=1;strokeColor=#0e8088;shadow=1;fillColor=#FFFFCC;opacity=60;" parent="1" vertex="1">
          <mxGeometry x="-360" y="493" width="249" height="169" as="geometry" />
        </mxCell>
        <mxCell id="l3QMB8aYCtV3EK-DeP1m-32" value="0..n" style="endArrow=open;html=1;endSize=12;startArrow=diamondThin;startSize=14;startFill=1;edgeStyle=orthogonalEdgeStyle;align=left;verticalAlign=bottom;strokeWidth=1;entryX=0.5;entryY=0;entryDx=0;entryDy=0;exitX=0.5;exitY=1;exitDx=0;exitDy=0;" parent="1" source="XHzrQX2ppPqFaPMvTT7x-39" target="l3QMB8aYCtV3EK-DeP1m-29" edge="1">
          <mxGeometry x="0.1569" y="-5" relative="1" as="geometry">
            <mxPoint x="-282.5" y="721" as="sourcePoint" />
            <mxPoint x="-345" y="808" as="targetPoint" />
            <mxPoint as="offset" />
          </mxGeometry>
        </mxCell>
        <mxCell id="g8zVUVb651xDIeDNfFYw-34" value="&lt;p style=&quot;margin: 0px ; margin-top: 4px ; text-align: center ; text-decoration: underline&quot;&gt;&lt;b&gt;Form&lt;/b&gt;&lt;/p&gt;&lt;hr&gt;&lt;p style=&quot;margin: 0px ; margin-left: 8px&quot;&gt;id: ID&lt;/p&gt;&lt;p style=&quot;margin: 0px ; margin-left: 8px&quot;&gt;description: string&lt;/p&gt;&lt;p style=&quot;margin: 0px ; margin-left: 8px&quot;&gt;questions: QuestionDef&lt;/p&gt;&lt;p style=&quot;margin: 0px ; margin-left: 8px&quot;&gt;&lt;br&gt;&lt;/p&gt;" style="verticalAlign=top;align=left;overflow=fill;fontSize=12;fontFamily=Helvetica;html=1;strokeColor=#666666;shadow=1;fillColor=#f5f5f5;fontColor=#333333;" parent="1" vertex="1">
          <mxGeometry x="885.38" y="632" width="144.75" height="102" as="geometry" />
        </mxCell>
        <mxCell id="g8zVUVb651xDIeDNfFYw-35" value="&lt;p style=&quot;margin: 0px ; margin-top: 4px ; text-align: center ; text-decoration: underline&quot;&gt;&lt;b&gt;VisualType&lt;/b&gt;&lt;/p&gt;&lt;hr&gt;&lt;p style=&quot;margin: 0px ; margin-left: 8px&quot;&gt;id: ID&lt;/p&gt;&lt;p style=&quot;margin: 0px ; margin-left: 8px&quot;&gt;name: string&lt;/p&gt;&lt;p style=&quot;margin: 0px ; margin-left: 8px&quot;&gt;minWidth: int&lt;/p&gt;&lt;p style=&quot;margin: 0px ; margin-left: 8px&quot;&gt;maxWidth: int&lt;/p&gt;&lt;p style=&quot;margin: 0px ; margin-left: 8px&quot;&gt;minHeight: int&lt;/p&gt;&lt;p style=&quot;margin: 0px ; margin-left: 8px&quot;&gt;maxHeight: int&lt;/p&gt;&lt;p style=&quot;margin: 0px ; margin-left: 8px&quot;&gt;aspectRatio: int&lt;/p&gt;" style="verticalAlign=top;align=left;overflow=fill;fontSize=12;fontFamily=Helvetica;html=1;strokeColor=#666666;shadow=1;fillColor=#f5f5f5;fontColor=#333333;" parent="1" vertex="1">
          <mxGeometry x="1317" y="653" width="144" height="143" as="geometry" />
        </mxCell>
        <mxCell id="g8zVUVb651xDIeDNfFYw-41" value="&lt;p style=&quot;margin: 0px ; margin-top: 4px ; text-align: center ; text-decoration: underline&quot;&gt;&lt;b&gt;Configuration&lt;/b&gt;&lt;/p&gt;&lt;hr&gt;&lt;p style=&quot;margin: 0px ; margin-left: 8px&quot;&gt;id: ID&lt;/p&gt;&lt;p style=&quot;margin: 0px ; margin-left: 8px&quot;&gt;featureFlags: boolean&lt;br&gt;&lt;/p&gt;" style="verticalAlign=top;align=left;overflow=fill;fontSize=12;fontFamily=Helvetica;html=1;strokeColor=#0e8088;shadow=1;fillColor=#b0e3e6;opacity=60;" parent="1" vertex="1">
          <mxGeometry x="39" y="-193" width="186" height="134" as="geometry" />
        </mxCell>
        <mxCell id="g8zVUVb651xDIeDNfFYw-45" value="&lt;p style=&quot;margin: 0px ; margin-top: 4px ; text-align: center ; text-decoration: underline&quot;&gt;&lt;b&gt;Platform&lt;/b&gt;&lt;/p&gt;&lt;hr&gt;&lt;p style=&quot;margin: 0px ; margin-left: 8px&quot;&gt;id: ID&lt;/p&gt;&lt;p style=&quot;margin: 0px ; margin-left: 8px&quot;&gt;communication: Communication&lt;/p&gt;&lt;p style=&quot;margin: 0px ; margin-left: 8px&quot;&gt;hubs: InnovationHub[]&lt;/p&gt;&lt;p style=&quot;margin: 0px ; margin-left: 8px&quot;&gt;storage: StorageBucket&lt;/p&gt;" style="verticalAlign=top;align=left;overflow=fill;fontSize=12;fontFamily=Helvetica;html=1;strokeColor=#0e8088;shadow=1;fillColor=#b0e3e6;opacity=60;" parent="1" vertex="1">
          <mxGeometry x="255" y="-394" width="239" height="111" as="geometry" />
        </mxCell>
        <mxCell id="g8zVUVb651xDIeDNfFYw-46" value="&lt;p style=&quot;margin: 0px ; margin-top: 4px ; text-align: center ; text-decoration: underline&quot;&gt;&lt;b&gt;Calendar&lt;/b&gt;&lt;/p&gt;&lt;hr&gt;&lt;p style=&quot;margin: 0px ; margin-left: 8px&quot;&gt;id: ID&lt;/p&gt;&lt;p style=&quot;margin: 0px ; margin-left: 8px&quot;&gt;&lt;span&gt;nameID: string&lt;/span&gt;&lt;br&gt;&lt;/p&gt;&lt;p style=&quot;margin: 0px ; margin-left: 8px&quot;&gt;events: CalendarEvent[]&lt;/p&gt;" style="verticalAlign=top;align=left;overflow=fill;fontSize=12;fontFamily=Helvetica;html=1;strokeColor=#d79b00;shadow=1;fillColor=#FFFFCC;" parent="1" vertex="1">
          <mxGeometry x="-46" y="865" width="179" height="99" as="geometry" />
        </mxCell>
        <mxCell id="g8zVUVb651xDIeDNfFYw-48" value="&lt;p style=&quot;margin: 0px ; margin-top: 4px ; text-align: center ; text-decoration: underline&quot;&gt;&lt;b&gt;CalendarEvent&lt;/b&gt;&lt;/p&gt;&lt;hr&gt;&lt;p style=&quot;margin: 0px ; margin-left: 8px&quot;&gt;id: ID&lt;/p&gt;&lt;p style=&quot;margin: 0px ; margin-left: 8px&quot;&gt;nameID: string&lt;/p&gt;&lt;p style=&quot;margin: 0px ; margin-left: 8px&quot;&gt;profile: Profile&lt;/p&gt;&lt;p style=&quot;margin: 0px ; margin-left: 8px&quot;&gt;startDate: Date&lt;/p&gt;&lt;p style=&quot;margin: 0px ; margin-left: 8px&quot;&gt;durationDays: integer&lt;/p&gt;&lt;p style=&quot;margin: 0px ; margin-left: 8px&quot;&gt;durationMinutes: integer&lt;/p&gt;&lt;p style=&quot;margin: 0px ; margin-left: 8px&quot;&gt;multipleDays: boolean&lt;/p&gt;" style="verticalAlign=top;align=left;overflow=fill;fontSize=12;fontFamily=Helvetica;html=1;strokeColor=#d79b00;shadow=1;fillColor=#FFFFCC;" parent="1" vertex="1">
          <mxGeometry x="177" y="708" width="180" height="153" as="geometry" />
        </mxCell>
        <mxCell id="g8zVUVb651xDIeDNfFYw-49" value="0..n" style="endArrow=open;html=1;endSize=12;startArrow=diamondThin;startSize=14;startFill=1;edgeStyle=orthogonalEdgeStyle;align=left;verticalAlign=bottom;strokeWidth=1;entryX=0;entryY=0.5;entryDx=0;entryDy=0;exitX=1;exitY=0.5;exitDx=0;exitDy=0;" parent="1" source="g8zVUVb651xDIeDNfFYw-46" target="g8zVUVb651xDIeDNfFYw-48" edge="1">
          <mxGeometry x="0.3684" y="3" relative="1" as="geometry">
            <mxPoint x="4" y="976" as="sourcePoint" />
            <mxPoint x="145" y="1045.5300000000002" as="targetPoint" />
            <mxPoint y="1" as="offset" />
          </mxGeometry>
        </mxCell>
        <mxCell id="g8zVUVb651xDIeDNfFYw-57" value="&lt;p style=&quot;margin: 0px ; margin-top: 4px ; text-align: center ; text-decoration: underline&quot;&gt;&lt;b&gt;Timeline&lt;/b&gt;&lt;/p&gt;&lt;hr&gt;&lt;p style=&quot;margin: 0px ; margin-left: 8px&quot;&gt;id: ID&lt;/p&gt;&lt;p style=&quot;margin: 0px ; margin-left: 8px&quot;&gt;&lt;span&gt;calendar: Calendar&lt;/span&gt;&lt;/p&gt;&lt;p style=&quot;margin: 0px ; margin-left: 8px&quot;&gt;&lt;br&gt;&lt;/p&gt;" style="verticalAlign=top;align=left;overflow=fill;fontSize=12;fontFamily=Helvetica;html=1;strokeColor=#d79b00;shadow=1;fillColor=#FFFFCC;" parent="1" vertex="1">
          <mxGeometry x="-25" y="714" width="161" height="94" as="geometry" />
        </mxCell>
        <mxCell id="g8zVUVb651xDIeDNfFYw-58" value="0..n" style="endArrow=open;html=1;endSize=12;startArrow=diamondThin;startSize=14;startFill=1;edgeStyle=orthogonalEdgeStyle;align=left;verticalAlign=bottom;strokeWidth=1;entryX=0.5;entryY=0;entryDx=0;entryDy=0;exitX=0.544;exitY=0.981;exitDx=0;exitDy=0;exitPerimeter=0;" parent="1" source="g8zVUVb651xDIeDNfFYw-57" target="g8zVUVb651xDIeDNfFYw-46" edge="1">
          <mxGeometry x="0.3684" y="3" relative="1" as="geometry">
            <mxPoint x="151" y="828" as="sourcePoint" />
            <mxPoint x="376.5399999999995" y="929.903" as="targetPoint" />
            <mxPoint y="1" as="offset" />
          </mxGeometry>
        </mxCell>
        <mxCell id="g8zVUVb651xDIeDNfFYw-60" value="" style="edgeStyle=orthogonalEdgeStyle;fontSize=12;html=1;endArrow=ERmandOne;startArrow=ERmandOne;exitX=0.5;exitY=1;exitDx=0;exitDy=0;entryX=0.5;entryY=0;entryDx=0;entryDy=0;" parent="1" source="E1yKPfijJHyPbYJbG4GJ-41" target="g8zVUVb651xDIeDNfFYw-35" edge="1">
          <mxGeometry width="100" height="100" relative="1" as="geometry">
            <mxPoint x="763.5" y="374" as="sourcePoint" />
            <mxPoint x="694.75" y="420" as="targetPoint" />
          </mxGeometry>
        </mxCell>
        <mxCell id="uvyQVKtZNlK0fUVbQQDJ-29" value="" style="edgeStyle=orthogonalEdgeStyle;fontSize=12;html=1;endArrow=ERmandOne;startArrow=ERmandOne;entryX=0.188;entryY=0.962;entryDx=0;entryDy=0;entryPerimeter=0;exitX=0.25;exitY=0;exitDx=0;exitDy=0;" parent="1" source="g8zVUVb651xDIeDNfFYw-57" target="XHzrQX2ppPqFaPMvTT7x-69" edge="1">
          <mxGeometry width="100" height="100" relative="1" as="geometry">
            <mxPoint x="-2" y="680" as="sourcePoint" />
            <mxPoint x="335" y="279.5" as="targetPoint" />
          </mxGeometry>
        </mxCell>
        <mxCell id="uvyQVKtZNlK0fUVbQQDJ-32" value="" style="edgeStyle=orthogonalEdgeStyle;fontSize=12;html=1;endArrow=ERmandOne;startArrow=ERmandOne;exitX=0.5;exitY=0;exitDx=0;exitDy=0;entryX=0.25;entryY=1;entryDx=0;entryDy=0;" parent="1" source="g8zVUVb651xDIeDNfFYw-41" target="g8zVUVb651xDIeDNfFYw-45" edge="1">
          <mxGeometry width="100" height="100" relative="1" as="geometry">
            <mxPoint x="-1599.5" y="702" as="sourcePoint" />
            <mxPoint x="-1701.6639999999998" y="356.44000000000005" as="targetPoint" />
          </mxGeometry>
        </mxCell>
        <mxCell id="uvyQVKtZNlK0fUVbQQDJ-33" value="&lt;p style=&quot;margin: 0px ; margin-top: 4px ; text-align: center ; text-decoration: underline&quot;&gt;&lt;b&gt;InnovationPack&lt;/b&gt;&lt;/p&gt;&lt;hr&gt;&lt;p style=&quot;margin: 0px ; margin-left: 8px&quot;&gt;id: ID&lt;/p&gt;&lt;p style=&quot;margin: 0px ; margin-left: 8px&quot;&gt;nameID: String&lt;/p&gt;&lt;p style=&quot;margin: 0px ; margin-left: 8px&quot;&gt;profile: Profile&lt;/p&gt;&lt;p style=&quot;margin: 0px ; margin-left: 8px&quot;&gt;provider: Organization&lt;/p&gt;&lt;p style=&quot;margin: 0px ; margin-left: 8px&quot;&gt;templatesSet: TemplatesSet&lt;/p&gt;" style="verticalAlign=top;align=left;overflow=fill;fontSize=12;fontFamily=Helvetica;html=1;strokeColor=#0e8088;shadow=1;fillColor=#b0e3e6;opacity=60;" parent="1" vertex="1">
          <mxGeometry x="830" y="-193" width="220" height="135" as="geometry" />
        </mxCell>
        <mxCell id="uvyQVKtZNlK0fUVbQQDJ-34" value="&lt;p style=&quot;margin: 0px ; margin-top: 4px ; text-align: center ; text-decoration: underline&quot;&gt;&lt;b&gt;InnovationLibrary&lt;/b&gt;&lt;/p&gt;&lt;hr&gt;&lt;p style=&quot;margin: 0px ; margin-left: 8px&quot;&gt;id: ID&lt;/p&gt;&lt;p style=&quot;margin: 0px ; margin-left: 8px&quot;&gt;innovationPacks: InnovationPack[]&lt;/p&gt;&lt;p style=&quot;margin: 0px ; margin-left: 8px&quot;&gt;storage: StorageBucket&lt;/p&gt;&lt;p style=&quot;margin: 0px ; margin-left: 8px&quot;&gt;&lt;br&gt;&lt;/p&gt;" style="verticalAlign=top;align=left;overflow=fill;fontSize=12;fontFamily=Helvetica;html=1;strokeColor=#0e8088;shadow=1;fillColor=#b0e3e6;opacity=60;" parent="1" vertex="1">
          <mxGeometry x="521" y="-193" width="226" height="135" as="geometry" />
        </mxCell>
        <mxCell id="uvyQVKtZNlK0fUVbQQDJ-35" value="" style="edgeStyle=orthogonalEdgeStyle;fontSize=12;html=1;endArrow=ERmandOne;startArrow=ERmandOne;exitX=0.5;exitY=0;exitDx=0;exitDy=0;entryX=0.75;entryY=1;entryDx=0;entryDy=0;" parent="1" source="uvyQVKtZNlK0fUVbQQDJ-34" target="g8zVUVb651xDIeDNfFYw-45" edge="1">
          <mxGeometry width="100" height="100" relative="1" as="geometry">
            <mxPoint x="-959.5" y="-158" as="sourcePoint" />
            <mxPoint x="-952.5" y="-215.99999999999977" as="targetPoint" />
          </mxGeometry>
        </mxCell>
        <mxCell id="uvyQVKtZNlK0fUVbQQDJ-36" value="0..n" style="endArrow=open;html=1;endSize=12;startArrow=diamondThin;startSize=14;startFill=1;edgeStyle=orthogonalEdgeStyle;align=left;verticalAlign=bottom;strokeWidth=1;entryX=0;entryY=0.5;entryDx=0;entryDy=0;fillColor=#b0e3e6;strokeColor=#0e8088;opacity=60;exitX=1;exitY=0.5;exitDx=0;exitDy=0;" parent="1" source="uvyQVKtZNlK0fUVbQQDJ-34" target="uvyQVKtZNlK0fUVbQQDJ-33" edge="1">
          <mxGeometry relative="1" as="geometry">
            <mxPoint x="677" y="-89" as="sourcePoint" />
            <mxPoint x="-108" y="-172.24999999999977" as="targetPoint" />
          </mxGeometry>
        </mxCell>
        <mxCell id="uvyQVKtZNlK0fUVbQQDJ-37" value="0..n" style="endArrow=open;html=1;endSize=12;startArrow=diamondThin;startSize=14;startFill=1;edgeStyle=orthogonalEdgeStyle;align=left;verticalAlign=bottom;strokeWidth=1;exitX=1;exitY=0.25;exitDx=0;exitDy=0;fillColor=#b0e3e6;strokeColor=#0e8088;opacity=60;" parent="1" source="52S6UJCDuXW4AV97fZFU-30" target="E1yKPfijJHyPbYJbG4GJ-41" edge="1">
          <mxGeometry relative="1" as="geometry">
            <mxPoint x="1721.000000000001" y="806" as="sourcePoint" />
            <mxPoint x="1587.5" y="881" as="targetPoint" />
          </mxGeometry>
        </mxCell>
        <mxCell id="uvyQVKtZNlK0fUVbQQDJ-38" value="" style="edgeStyle=orthogonalEdgeStyle;fontSize=12;html=1;endArrow=ERmandOne;startArrow=ERmandOne;exitX=0.5;exitY=0;exitDx=0;exitDy=0;entryX=0.5;entryY=1;entryDx=0;entryDy=0;" parent="1" source="FQ2XHo6aB85YoyOK63lh-34" target="52S6UJCDuXW4AV97fZFU-30" edge="1">
          <mxGeometry width="100" height="100" relative="1" as="geometry">
            <mxPoint x="1472.75" y="-183.99999999999977" as="sourcePoint" />
            <mxPoint x="1239.25" y="-258.9999999999998" as="targetPoint" />
          </mxGeometry>
        </mxCell>
        <mxCell id="uvyQVKtZNlK0fUVbQQDJ-39" value="0..n" style="endArrow=open;html=1;endSize=12;startArrow=diamondThin;startSize=14;startFill=1;edgeStyle=orthogonalEdgeStyle;align=left;verticalAlign=bottom;strokeWidth=1;exitX=0;exitY=0.25;exitDx=0;exitDy=0;fillColor=#b0e3e6;strokeColor=#0e8088;opacity=60;" parent="1" source="52S6UJCDuXW4AV97fZFU-30" target="52S6UJCDuXW4AV97fZFU-38" edge="1">
          <mxGeometry relative="1" as="geometry">
            <mxPoint x="1269" y="550.125" as="sourcePoint" />
            <mxPoint x="1327" y="560" as="targetPoint" />
          </mxGeometry>
        </mxCell>
        <mxCell id="uvyQVKtZNlK0fUVbQQDJ-40" value="0..n" style="endArrow=open;html=1;endSize=12;startArrow=diamondThin;startSize=14;startFill=1;edgeStyle=orthogonalEdgeStyle;align=left;verticalAlign=bottom;strokeWidth=1;exitX=0;exitY=0.5;exitDx=0;exitDy=0;fillColor=#b0e3e6;strokeColor=#0e8088;opacity=60;entryX=1;entryY=0.25;entryDx=0;entryDy=0;" parent="1" source="52S6UJCDuXW4AV97fZFU-30" target="uUSE7LgSBabqXevBdUgd-38" edge="1">
          <mxGeometry relative="1" as="geometry">
            <mxPoint x="1105" y="550.125" as="sourcePoint" />
            <mxPoint x="1033.500000000001" y="561.5714285714289" as="targetPoint" />
          </mxGeometry>
        </mxCell>
        <mxCell id="BgNwUCcEjjvmfO4e12St-30" value="&lt;p style=&quot;margin: 0px ; margin-top: 4px ; text-align: center ; text-decoration: underline&quot;&gt;&lt;b&gt;InnovationHub&lt;/b&gt;&lt;/p&gt;&lt;hr&gt;&lt;p style=&quot;margin: 0px ; margin-left: 8px&quot;&gt;id: ID&lt;/p&gt;&lt;p style=&quot;margin: 0px ; margin-left: 8px&quot;&gt;nameID: String&lt;/p&gt;&lt;p style=&quot;margin: 0px ; margin-left: 8px&quot;&gt;profile: Profile&lt;/p&gt;&lt;p style=&quot;margin: 0px ; margin-left: 8px&quot;&gt;subdomain: string&lt;/p&gt;&lt;p style=&quot;margin: 0px ; margin-left: 8px&quot;&gt;filterSpaces: string[]&lt;/p&gt;&lt;p style=&quot;margin: 0px ; margin-left: 8px&quot;&gt;filterVisibility: Visibility&lt;/p&gt;&lt;p style=&quot;margin: 0px ; margin-left: 8px&quot;&gt;&lt;br&gt;&lt;/p&gt;&lt;p style=&quot;margin: 0px ; margin-left: 8px&quot;&gt;&lt;br&gt;&lt;/p&gt;" style="verticalAlign=top;align=left;overflow=fill;fontSize=12;fontFamily=Helvetica;html=1;strokeColor=#0e8088;shadow=1;fillColor=#b0e3e6;opacity=60;" parent="1" vertex="1">
          <mxGeometry x="262" y="-193" width="228" height="134" as="geometry" />
        </mxCell>
        <mxCell id="BgNwUCcEjjvmfO4e12St-31" value="0..n" style="endArrow=open;html=1;endSize=12;startArrow=diamondThin;startSize=14;startFill=1;edgeStyle=orthogonalEdgeStyle;align=left;verticalAlign=bottom;strokeWidth=1;entryX=0.5;entryY=0;entryDx=0;entryDy=0;exitX=0.5;exitY=1;exitDx=0;exitDy=0;fillColor=#b0e3e6;strokeColor=#0e8088;opacity=60;" parent="1" source="g8zVUVb651xDIeDNfFYw-45" target="BgNwUCcEjjvmfO4e12St-30" edge="1">
          <mxGeometry x="0.3684" y="3" relative="1" as="geometry">
            <mxPoint x="391" y="-87" as="sourcePoint" />
            <mxPoint x="395" y="-27" as="targetPoint" />
            <mxPoint y="1" as="offset" />
          </mxGeometry>
        </mxCell>
        <mxCell id="BgNwUCcEjjvmfO4e12St-32" value="&lt;p style=&quot;margin: 0px ; margin-top: 4px ; text-align: center ; text-decoration: underline&quot;&gt;&lt;b&gt;StorageBucket&lt;/b&gt;&lt;/p&gt;&lt;hr&gt;&lt;p style=&quot;margin: 0px ; margin-left: 8px&quot;&gt;id: ID&lt;/p&gt;&lt;p style=&quot;margin: 0px ; margin-left: 8px&quot;&gt;&lt;span style=&quot;background-color: initial;&quot;&gt;allowedMimetTypes: MimeType[]&lt;/span&gt;&lt;/p&gt;&lt;p style=&quot;margin: 0px ; margin-left: 8px&quot;&gt;&lt;span style=&quot;background-color: initial;&quot;&gt;maxFileSize: int&lt;/span&gt;&lt;/p&gt;&lt;p style=&quot;margin: 0px ; margin-left: 8px&quot;&gt;&lt;span style=&quot;background-color: initial;&quot;&gt;documents: Document[]&lt;/span&gt;&lt;/p&gt;&lt;p style=&quot;margin: 0px ; margin-left: 8px&quot;&gt;&lt;br&gt;&lt;/p&gt;" style="verticalAlign=top;align=left;overflow=fill;fontSize=12;fontFamily=Helvetica;html=1;strokeColor=#d79b00;shadow=1;fillColor=#FFCE9F;" parent="1" vertex="1">
          <mxGeometry x="247" y="892" width="271" height="117" as="geometry" />
        </mxCell>
        <mxCell id="BgNwUCcEjjvmfO4e12St-33" value="&lt;p style=&quot;margin: 0px ; margin-top: 4px ; text-align: center ; text-decoration: underline&quot;&gt;&lt;b&gt;Document&lt;/b&gt;&lt;/p&gt;&lt;hr&gt;&lt;p style=&quot;margin: 0px ; margin-left: 8px&quot;&gt;id: ID&lt;/p&gt;&lt;p style=&quot;margin: 0px ; margin-left: 8px&quot;&gt;mimeType: MimeType&lt;/p&gt;&lt;p style=&quot;margin: 0px ; margin-left: 8px&quot;&gt;size: int&lt;/p&gt;&lt;p style=&quot;margin: 0px ; margin-left: 8px&quot;&gt;displayName: string&lt;/p&gt;&lt;p style=&quot;margin: 0px ; margin-left: 8px&quot;&gt;createdBy: User&lt;/p&gt;&lt;p style=&quot;margin: 0px ; margin-left: 8px&quot;&gt;&lt;br&gt;&lt;/p&gt;" style="verticalAlign=top;align=left;overflow=fill;fontSize=12;fontFamily=Helvetica;html=1;strokeColor=#d79b00;shadow=1;fillColor=#FFCE9F;" parent="1" vertex="1">
          <mxGeometry x="315" y="1076" width="166" height="117" as="geometry" />
        </mxCell>
        <mxCell id="BgNwUCcEjjvmfO4e12St-34" value="0..n" style="endArrow=open;html=1;endSize=12;startArrow=diamondThin;startSize=14;startFill=1;edgeStyle=orthogonalEdgeStyle;align=left;verticalAlign=bottom;strokeWidth=1;entryX=0.474;entryY=0.007;entryDx=0;entryDy=0;entryPerimeter=0;exitX=0.544;exitY=0.981;exitDx=0;exitDy=0;exitPerimeter=0;" parent="1" source="BgNwUCcEjjvmfO4e12St-32" target="BgNwUCcEjjvmfO4e12St-33" edge="1">
          <mxGeometry x="0.3684" y="3" relative="1" as="geometry">
            <mxPoint x="1004" y="931" as="sourcePoint" />
            <mxPoint x="1145" y="1000.5300000000001" as="targetPoint" />
            <mxPoint y="1" as="offset" />
          </mxGeometry>
        </mxCell>
        <mxCell id="lY5sdVedkNxhWJHI0kl--29" value="&lt;p style=&quot;margin: 0px ; margin-top: 4px ; text-align: center ; text-decoration: underline&quot;&gt;&lt;b&gt;TagsetTemplate&lt;/b&gt;&lt;/p&gt;&lt;hr&gt;&lt;p style=&quot;margin: 0px ; margin-left: 8px&quot;&gt;id: ID&lt;/p&gt;&lt;p style=&quot;margin: 0px ; margin-left: 8px&quot;&gt;name: string&lt;/p&gt;&lt;p style=&quot;margin: 0px ; margin-left: 8px&quot;&gt;allowedValues: string[]&lt;/p&gt;&lt;p style=&quot;margin: 0px ; margin-left: 8px&quot;&gt;&lt;br&gt;&lt;/p&gt;" style="verticalAlign=top;align=left;overflow=fill;fontSize=12;fontFamily=Helvetica;html=1;strokeColor=#666666;shadow=1;fillColor=#f5f5f5;fontColor=#333333;" parent="1" vertex="1">
          <mxGeometry x="874.13" y="947" width="167.25" height="93" as="geometry" />
        </mxCell>
        <mxCell id="lY5sdVedkNxhWJHI0kl--31" value="&lt;p style=&quot;margin: 0px ; margin-top: 4px ; text-align: center ; text-decoration: underline&quot;&gt;&lt;b&gt;InnovationFlow&lt;/b&gt;&lt;/p&gt;&lt;hr&gt;&lt;p style=&quot;margin: 0px ; margin-left: 8px&quot;&gt;id: ID&lt;/p&gt;&lt;p style=&quot;margin: 0px ; margin-left: 8px&quot;&gt;lifecycle:Lifecycle&lt;/p&gt;&lt;p style=&quot;margin: 0px ; margin-left: 8px&quot;&gt;profile: Profile&lt;/p&gt;&lt;p style=&quot;margin: 0px ; margin-left: 8px&quot;&gt;type: string&lt;/p&gt;" style="verticalAlign=top;align=left;overflow=fill;fontSize=12;fontFamily=Helvetica;html=1;strokeColor=#666666;shadow=1;fillColor=#FFE599;fontColor=#333333;" parent="1" vertex="1">
          <mxGeometry x="605" y="808" width="214" height="105" as="geometry" />
        </mxCell>
        <mxCell id="lY5sdVedkNxhWJHI0kl--34" style="edgeStyle=orthogonalEdgeStyle;rounded=0;orthogonalLoop=1;jettySize=auto;html=1;entryX=1;entryY=0.5;entryDx=0;entryDy=0;" parent="1" source="lY5sdVedkNxhWJHI0kl--33" target="lY5sdVedkNxhWJHI0kl--29" edge="1">
          <mxGeometry relative="1" as="geometry" />
        </mxCell>
        <mxCell id="lY5sdVedkNxhWJHI0kl--33" value="&lt;p style=&quot;margin: 0px ; margin-top: 4px ; text-align: center ; text-decoration: underline&quot;&gt;&lt;b&gt;TagsetTemplateSet&lt;/b&gt;&lt;/p&gt;&lt;hr&gt;&lt;p style=&quot;margin: 0px ; margin-left: 8px&quot;&gt;id: ID&lt;/p&gt;&lt;p style=&quot;margin: 0px ; margin-left: 8px&quot;&gt;name: string&lt;/p&gt;&lt;p style=&quot;margin: 0px ; margin-left: 8px&quot;&gt;tagsetTemplates: TagsetTemplate[]&lt;/p&gt;&lt;p style=&quot;margin: 0px ; margin-left: 8px&quot;&gt;&lt;br&gt;&lt;/p&gt;" style="verticalAlign=top;align=left;overflow=fill;fontSize=12;fontFamily=Helvetica;html=1;strokeColor=#666666;shadow=1;fillColor=#f5f5f5;fontColor=#333333;" parent="1" vertex="1">
          <mxGeometry x="1100" y="861" width="209" height="93" as="geometry" />
        </mxCell>
        <mxCell id="g2qxA8J3PHNW-homcO40-30" value="" style="edgeStyle=orthogonalEdgeStyle;fontSize=12;html=1;endArrow=ERmandOne;startArrow=ERmandOne;exitX=0.5;exitY=0;exitDx=0;exitDy=0;" parent="1" source="fy6HlwIQvY-UTlpl7jCo-104" target="lY5sdVedkNxhWJHI0kl--31" edge="1">
          <mxGeometry width="100" height="100" relative="1" as="geometry">
            <mxPoint x="-111" y="339" as="sourcePoint" />
            <mxPoint x="281" y="183" as="targetPoint" />
          </mxGeometry>
        </mxCell>
        <mxCell id="M3meeMQkK0GjU1I2r6OC-29" value="0..n" style="endArrow=open;html=1;endSize=12;startArrow=diamondThin;startSize=14;startFill=1;edgeStyle=orthogonalEdgeStyle;align=left;verticalAlign=bottom;strokeWidth=1;entryX=1;entryY=0.25;entryDx=0;entryDy=0;fillColor=#b0e3e6;strokeColor=#0e8088;opacity=60;exitX=0;exitY=0.75;exitDx=0;exitDy=0;" parent="1" source="M3meeMQkK0GjU1I2r6OC-32" target="M3meeMQkK0GjU1I2r6OC-34" edge="1">
          <mxGeometry relative="1" as="geometry">
            <mxPoint x="-1420" y="623.5" as="sourcePoint" />
            <mxPoint x="-1547" y="748.5" as="targetPoint" />
          </mxGeometry>
        </mxCell>
        <mxCell id="M3meeMQkK0GjU1I2r6OC-30" value="0..n" style="endArrow=open;html=1;endSize=12;startArrow=none;startSize=14;startFill=1;edgeStyle=orthogonalEdgeStyle;align=left;verticalAlign=bottom;strokeWidth=1;entryX=0.802;entryY=0.002;entryDx=0;entryDy=0;fillColor=#b0e3e6;strokeColor=#0e8088;opacity=60;exitX=0.25;exitY=1;exitDx=0;exitDy=0;entryPerimeter=0;" parent="1" source="M3meeMQkK0GjU1I2r6OC-32" target="M3meeMQkK0GjU1I2r6OC-31" edge="1">
          <mxGeometry relative="1" as="geometry">
            <mxPoint x="-1347.9520000000002" y="621.806" as="sourcePoint" />
            <mxPoint x="-1344" y="831.51" as="targetPoint" />
          </mxGeometry>
        </mxCell>
        <mxCell id="M3meeMQkK0GjU1I2r6OC-31" value="&lt;p style=&quot;margin: 0px ; margin-top: 4px ; text-align: center ; text-decoration: underline&quot;&gt;&lt;b&gt;WhiteboardTemplate&lt;/b&gt;&lt;/p&gt;&lt;hr&gt;&lt;p style=&quot;margin: 0px ; margin-left: 8px&quot;&gt;id: ID&lt;/p&gt;&lt;p style=&quot;margin: 0px ; margin-left: 8px&quot;&gt;profile: Profile&lt;/p&gt;&lt;p style=&quot;margin: 0px ; margin-left: 8px&quot;&gt;content: WhiteboardContent&lt;/p&gt;" style="verticalAlign=top;align=left;overflow=fill;fontSize=12;fontFamily=Helvetica;html=1;strokeColor=#0e8088;shadow=1;fillColor=#b0e3e6;opacity=60;" parent="1" vertex="1">
          <mxGeometry x="-1240" y="717.5" width="201" height="136.5" as="geometry" />
        </mxCell>
        <mxCell id="M3meeMQkK0GjU1I2r6OC-32" value="&lt;p style=&quot;margin: 0px ; margin-top: 4px ; text-align: center ; text-decoration: underline&quot;&gt;&lt;b&gt;TemplatesSet&lt;/b&gt;&lt;/p&gt;&lt;hr&gt;&lt;p style=&quot;margin: 0px ; margin-left: 8px&quot;&gt;id: ID&lt;/p&gt;&lt;p style=&quot;margin: 0px ; margin-left: 8px&quot;&gt;postTemplates: PostTemplate[]&lt;/p&gt;&lt;p style=&quot;margin: 0px ; margin-left: 8px&quot;&gt;whiteboardTemplates: WhiteboardTemplate[]&lt;/p&gt;&lt;p style=&quot;margin: 0px ; margin-left: 8px&quot;&gt;innovationFlowTemplate: InnovationFlowTemplate[]&lt;/p&gt;&lt;p style=&quot;margin: 0px ; margin-left: 8px&quot;&gt;calloutTemplates: CalloutTemplate[]&lt;/p&gt;" style="verticalAlign=top;align=left;overflow=fill;fontSize=12;fontFamily=Helvetica;html=1;strokeColor=#0e8088;shadow=1;fillColor=#b0e3e6;opacity=60;" parent="1" vertex="1">
          <mxGeometry x="-1013" y="403" width="316" height="155" as="geometry" />
        </mxCell>
        <mxCell id="M3meeMQkK0GjU1I2r6OC-33" value="&lt;p style=&quot;margin: 0px ; margin-top: 4px ; text-align: center ; text-decoration: underline&quot;&gt;&lt;b&gt;InnovationFlowTemplate&lt;/b&gt;&lt;/p&gt;&lt;hr&gt;&lt;p style=&quot;border-color: var(--border-color); margin: 0px 0px 0px 8px;&quot;&gt;id: ID&lt;/p&gt;&lt;p style=&quot;margin: 0px ; margin-left: 8px&quot;&gt;profile: Profile&lt;/p&gt;&lt;p style=&quot;margin: 0px ; margin-left: 8px&quot;&gt;&lt;b&gt;type: string&lt;/b&gt;&lt;/p&gt;&lt;p style=&quot;margin: 0px ; margin-left: 8px&quot;&gt;livecycle: Lifecycle&lt;/p&gt;" style="verticalAlign=top;align=left;overflow=fill;fontSize=12;fontFamily=Helvetica;html=1;strokeColor=#0e8088;shadow=1;fillColor=#b0e3e6;opacity=60;" parent="1" vertex="1">
          <mxGeometry x="-1429" y="410.5" width="201" height="140" as="geometry" />
        </mxCell>
        <mxCell id="M3meeMQkK0GjU1I2r6OC-34" value="&lt;p style=&quot;margin: 0px ; margin-top: 4px ; text-align: center ; text-decoration: underline&quot;&gt;&lt;b&gt;PostTemplate&lt;/b&gt;&lt;/p&gt;&lt;hr&gt;&lt;p style=&quot;border-color: var(--border-color); margin: 0px 0px 0px 8px;&quot;&gt;id: ID&lt;/p&gt;&lt;p style=&quot;margin: 0px ; margin-left: 8px&quot;&gt;profile: Profile&lt;/p&gt;&lt;p style=&quot;margin: 0px ; margin-left: 8px&quot;&gt;type: string&lt;/p&gt;&lt;p style=&quot;margin: 0px ; margin-left: 8px&quot;&gt;defaultDescription: Markdown&lt;/p&gt;" style="verticalAlign=top;align=left;overflow=fill;fontSize=12;fontFamily=Helvetica;html=1;strokeColor=#0e8088;shadow=1;fillColor=#b0e3e6;opacity=60;" parent="1" vertex="1">
          <mxGeometry x="-1429" y="566.5" width="201" height="135.5" as="geometry" />
        </mxCell>
        <mxCell id="M3meeMQkK0GjU1I2r6OC-35" value="0..n" style="endArrow=open;html=1;endSize=12;startArrow=diamondThin;startSize=14;startFill=1;edgeStyle=orthogonalEdgeStyle;align=left;verticalAlign=bottom;strokeWidth=1;entryX=1;entryY=0.25;entryDx=0;entryDy=0;fillColor=#b0e3e6;strokeColor=#0e8088;opacity=60;exitX=0;exitY=0.5;exitDx=0;exitDy=0;" parent="1" source="M3meeMQkK0GjU1I2r6OC-32" target="M3meeMQkK0GjU1I2r6OC-33" edge="1">
          <mxGeometry relative="1" as="geometry">
            <mxPoint x="-1499" y="623.5" as="sourcePoint" />
            <mxPoint x="-1402.499999999999" y="721.5" as="targetPoint" />
          </mxGeometry>
        </mxCell>
        <mxCell id="M3meeMQkK0GjU1I2r6OC-38" value="&lt;p style=&quot;margin: 0px ; margin-top: 4px ; text-align: center ; text-decoration: underline&quot;&gt;&lt;b&gt;CalloutTemplate&lt;/b&gt;&lt;/p&gt;&lt;hr&gt;&lt;p style=&quot;border-color: var(--border-color); margin: 0px 0px 0px 8px;&quot;&gt;id: ID&lt;/p&gt;&lt;p style=&quot;border-color: var(--border-color); margin: 0px 0px 0px 8px;&quot;&gt;profile: Profile&lt;/p&gt;&lt;p style=&quot;border-color: var(--border-color); margin: 0px 0px 0px 8px;&quot;&gt;&lt;br style=&quot;border-color: var(--border-color);&quot;&gt;&lt;/p&gt;&lt;p style=&quot;border-color: var(--border-color); margin: 0px 0px 0px 8px;&quot;&gt;framing: CalloutFraming&lt;/p&gt;&lt;p style=&quot;border-color: var(--border-color); margin: 0px 0px 0px 8px;&quot;&gt;contributionPolicy: ContributionPolicy&lt;/p&gt;&lt;p style=&quot;border-color: var(--border-color); margin: 0px 0px 0px 8px;&quot;&gt;contributionDefaults: ContributionDefaults&lt;/p&gt;&lt;p style=&quot;border-color: var(--border-color); margin: 0px 0px 0px 8px;&quot;&gt;&lt;br&gt;&lt;/p&gt;" style="verticalAlign=top;align=left;overflow=fill;fontSize=12;fontFamily=Helvetica;html=1;strokeColor=#0e8088;shadow=1;fillColor=#b0e3e6;opacity=60;" parent="1" vertex="1">
          <mxGeometry x="-1013" y="717.5" width="316" height="138" as="geometry" />
        </mxCell>
        <mxCell id="M3meeMQkK0GjU1I2r6OC-45" value="0..n" style="endArrow=open;html=1;endSize=12;startArrow=none;startSize=14;startFill=1;edgeStyle=orthogonalEdgeStyle;align=left;verticalAlign=bottom;strokeWidth=1;entryX=0.477;entryY=0.025;entryDx=0;entryDy=0;fillColor=#b0e3e6;strokeColor=#0e8088;opacity=60;exitX=0.5;exitY=1;exitDx=0;exitDy=0;entryPerimeter=0;" parent="1" source="M3meeMQkK0GjU1I2r6OC-32" target="M3meeMQkK0GjU1I2r6OC-38" edge="1">
          <mxGeometry x="-0.8862" y="10" relative="1" as="geometry">
            <mxPoint x="-1195" y="568.5" as="sourcePoint" />
            <mxPoint x="-1157" y="730.5" as="targetPoint" />
            <mxPoint x="-1" as="offset" />
          </mxGeometry>
        </mxCell>
        <mxCell id="jUQgdawCYTuHx77WMf0Y-29" value="&lt;p style=&quot;margin: 0px ; margin-top: 4px ; text-align: center ; text-decoration: underline&quot;&gt;&lt;b&gt;CalloutContribution&lt;/b&gt;&lt;/p&gt;&lt;hr&gt;&lt;p style=&quot;margin: 0px ; margin-left: 8px&quot;&gt;id: ID&lt;/p&gt;&lt;p style=&quot;margin: 0px ; margin-left: 8px&quot;&gt;post: Post&lt;/p&gt;&lt;p style=&quot;margin: 0px ; margin-left: 8px&quot;&gt;whiteboard: Whiteboard&lt;/p&gt;&lt;p style=&quot;margin: 0px ; margin-left: 8px&quot;&gt;comments: Comments&lt;/p&gt;&lt;p style=&quot;margin: 0px ; margin-left: 8px&quot;&gt;link: Reference&lt;/p&gt;&lt;p style=&quot;margin: 0px ; margin-left: 8px&quot;&gt;type: ContributionType&lt;/p&gt;" style="verticalAlign=top;align=left;overflow=fill;fontSize=12;fontFamily=Helvetica;html=1;strokeColor=#0e8088;shadow=1;fillColor=#FFFFCC;opacity=60;" parent="1" vertex="1">
          <mxGeometry x="-363" y="907" width="195" height="142.5" as="geometry" />
        </mxCell>
        <mxCell id="jUQgdawCYTuHx77WMf0Y-30" value="&lt;p style=&quot;margin: 0px ; margin-top: 4px ; text-align: center ; text-decoration: underline&quot;&gt;&lt;b&gt;ContributionPolicy&lt;/b&gt;&lt;/p&gt;&lt;hr&gt;&lt;p style=&quot;margin: 0px ; margin-left: 8px&quot;&gt;id: ID&lt;/p&gt;&lt;p style=&quot;margin: 0px ; margin-left: 8px&quot;&gt;&lt;span style=&quot;background-color: initial;&quot;&gt;allowedContributionTypes: [ContributionType]&lt;/span&gt;&lt;br&gt;&lt;/p&gt;&lt;p style=&quot;margin: 0px ; margin-left: 8px&quot;&gt;state: CalloutState&lt;/p&gt;&lt;p style=&quot;margin: 0px ; margin-left: 8px&quot;&gt;&lt;br&gt;&lt;/p&gt;" style="verticalAlign=top;align=left;overflow=fill;fontSize=12;fontFamily=Helvetica;html=1;strokeColor=#0e8088;shadow=1;fillColor=#b0e3e6;opacity=60;" parent="1" vertex="1">
          <mxGeometry x="-994" y="979.5" width="259" height="113" as="geometry" />
        </mxCell>
        <mxCell id="jUQgdawCYTuHx77WMf0Y-32" value="&lt;p style=&quot;margin: 0px ; margin-top: 4px ; text-align: center ; text-decoration: underline&quot;&gt;&lt;b&gt;CalloutFraming&lt;/b&gt;&lt;/p&gt;&lt;hr&gt;&lt;p style=&quot;margin: 0px ; margin-left: 8px&quot;&gt;id: ID&lt;/p&gt;&lt;p style=&quot;margin: 0px ; margin-left: 8px&quot;&gt;&lt;span style=&quot;background-color: initial;&quot;&gt;profile: Profile&lt;/span&gt;&lt;/p&gt;&lt;p style=&quot;margin: 0px ; margin-left: 8px&quot;&gt;&lt;span style=&quot;background-color: initial;&quot;&gt;whiteboardContent: WhiteboardContent&amp;nbsp;&lt;/span&gt;&lt;/p&gt;" style="verticalAlign=top;align=left;overflow=fill;fontSize=12;fontFamily=Helvetica;html=1;strokeColor=#0e8088;shadow=1;fillColor=#b0e3e6;opacity=60;" parent="1" vertex="1">
          <mxGeometry x="-1258" y="979.5" width="242" height="115" as="geometry" />
        </mxCell>
        <mxCell id="jUQgdawCYTuHx77WMf0Y-34" value="&lt;p style=&quot;margin: 0px ; margin-top: 4px ; text-align: center ; text-decoration: underline&quot;&gt;&lt;b&gt;ContributionDefaults&lt;/b&gt;&lt;/p&gt;&lt;hr&gt;&lt;p style=&quot;margin: 0px ; margin-left: 8px&quot;&gt;id: ID&lt;/p&gt;&lt;p style=&quot;margin: 0px ; margin-left: 8px&quot;&gt;description: string&lt;/p&gt;&lt;p style=&quot;margin: 0px ; margin-left: 8px&quot;&gt;whiteboardContent: WhiteboardContent&lt;/p&gt;&lt;p style=&quot;margin: 0px ; margin-left: 8px&quot;&gt;&lt;br&gt;&lt;/p&gt;&lt;p style=&quot;margin: 0px ; margin-left: 8px&quot;&gt;&lt;br&gt;&lt;/p&gt;" style="verticalAlign=top;align=left;overflow=fill;fontSize=12;fontFamily=Helvetica;html=1;strokeColor=#0e8088;shadow=1;fillColor=#b0e3e6;opacity=60;" parent="1" vertex="1">
          <mxGeometry x="-708" y="979.5" width="240" height="112" as="geometry" />
        </mxCell>
        <mxCell id="jUQgdawCYTuHx77WMf0Y-35" value="" style="edgeStyle=orthogonalEdgeStyle;fontSize=12;html=1;endArrow=ERmandOne;startArrow=ERmandOne;exitX=0.5;exitY=1;exitDx=0;exitDy=0;entryX=0.5;entryY=0;entryDx=0;entryDy=0;" parent="1" source="M3meeMQkK0GjU1I2r6OC-38" target="jUQgdawCYTuHx77WMf0Y-30" edge="1">
          <mxGeometry width="100" height="100" relative="1" as="geometry">
            <mxPoint x="-2060" y="1329.5" as="sourcePoint" />
            <mxPoint x="-2090" y="1455.5" as="targetPoint" />
          </mxGeometry>
        </mxCell>
        <mxCell id="jUQgdawCYTuHx77WMf0Y-36" value="" style="edgeStyle=orthogonalEdgeStyle;fontSize=12;html=1;endArrow=ERmandOne;startArrow=ERmandOne;exitX=0.25;exitY=1;exitDx=0;exitDy=0;entryX=0.5;entryY=0;entryDx=0;entryDy=0;" parent="1" source="M3meeMQkK0GjU1I2r6OC-38" target="jUQgdawCYTuHx77WMf0Y-32" edge="1">
          <mxGeometry width="100" height="100" relative="1" as="geometry">
            <mxPoint x="-1942" y="1395.5" as="sourcePoint" />
            <mxPoint x="-2183" y="1488.5" as="targetPoint" />
          </mxGeometry>
        </mxCell>
        <mxCell id="jUQgdawCYTuHx77WMf0Y-38" value="" style="edgeStyle=orthogonalEdgeStyle;fontSize=12;html=1;endArrow=ERmandOne;startArrow=ERmandOne;exitX=0.75;exitY=1;exitDx=0;exitDy=0;" parent="1" source="M3meeMQkK0GjU1I2r6OC-38" target="jUQgdawCYTuHx77WMf0Y-34" edge="1">
          <mxGeometry width="100" height="100" relative="1" as="geometry">
            <mxPoint x="-1741" y="1376.5" as="sourcePoint" />
            <mxPoint x="-2175" y="1498.5" as="targetPoint" />
          </mxGeometry>
        </mxCell>
        <mxCell id="diEMbD0KvmSpmZcEwt64-30" value="&lt;p style=&quot;margin: 0px ; margin-top: 4px ; text-align: center ; text-decoration: underline&quot;&gt;&lt;b&gt;WhiteboardRT&lt;/b&gt;&lt;/p&gt;&lt;hr&gt;&lt;p style=&quot;margin: 0px ; margin-left: 8px&quot;&gt;id: ID&lt;/p&gt;&lt;p style=&quot;margin: 0px ; margin-left: 8px&quot;&gt;nameID: string&lt;/p&gt;&lt;p style=&quot;margin: 0px ; margin-left: 8px&quot;&gt;profile: Profile&lt;/p&gt;&lt;p style=&quot;margin: 0px ; margin-left: 8px&quot;&gt;content: WhiteboardContent&amp;nbsp;&lt;/p&gt;" style="verticalAlign=top;align=left;overflow=fill;fontSize=12;fontFamily=Helvetica;html=1;strokeColor=#666666;shadow=1;fillColor=#FFFFCC;fontColor=#333333;opacity=60;" vertex="1" parent="1">
          <mxGeometry x="-632" y="714" width="176" height="138" as="geometry" />
        </mxCell>
        <mxCell id="diEMbD0KvmSpmZcEwt64-31" value="" style="edgeStyle=orthogonalEdgeStyle;fontSize=12;html=1;endArrow=ERmandOne;startArrow=ERmandOne;entryX=0;entryY=0.75;entryDx=0;entryDy=0;exitX=0.5;exitY=0;exitDx=0;exitDy=0;" edge="1" parent="1" source="diEMbD0KvmSpmZcEwt64-30" target="l3QMB8aYCtV3EK-DeP1m-29">
          <mxGeometry width="100" height="100" relative="1" as="geometry">
            <mxPoint x="-544" y="711" as="sourcePoint" />
            <mxPoint x="-486" y="535.25" as="targetPoint" />
          </mxGeometry>
        </mxCell>
      </root>
    </mxGraphModel>
  </diagram>
</mxfile>
